<svg width="124" height="122" viewBox="0 0 124 122" fill="none" xmlns="http://www.w3.org/2000/svg">
<g clip-path="url(#clip0_12_51)">
<path d="M93.5602 55.6446C94.4351 54.9624 95.0763 53.4936 95.9986 53.5252C96.8072 53.5505 97.5779 54.8676 98.3486 55.6257C99.0403 56.3016 99.7004 57.0091 100.405 57.6693C101.548 58.74 102.534 58.74 103.677 57.644C104.941 56.4153 106.22 55.174 107.426 53.8758C107.941 53.3262 108.213 53.3483 108.734 53.8758C112.439 57.6314 116.198 61.3301 119.893 65.0951C120.557 65.771 120.951 65.9479 121.627 65.1298C122.175 64.3936 122.848 63.7605 123.617 63.26V63.0168C123.323 62.7514 123.02 62.4987 122.739 62.2176L98.0296 37.5113C96.3903 35.8751 95.5437 35.8814 93.8855 37.5397C90.8627 40.5593 87.821 43.541 84.8362 46.6143C84.1224 47.347 83.7496 47.486 82.941 46.6616C76.5986 40.2339 70.1994 33.8694 63.8127 27.4859C62.0723 25.7456 61.3269 25.7456 59.5897 27.4859C53.1778 33.8979 46.7501 40.2971 40.3729 46.7533C39.6433 47.4924 39.3085 47.4039 38.642 46.7216C35.6603 43.661 32.6155 40.6635 29.5959 37.6407C27.8144 35.8625 27.0374 35.853 25.2844 37.606C17.4722 45.414 9.66313 53.2231 1.85724 61.0332C1.17499 61.7154 0.0157957 62.4229 0.0094786 63.1273C0.00316145 63.8317 1.25396 64.4634 1.85093 65.2088C2.4479 65.9542 2.7985 65.8405 3.40495 65.2088C7.1068 61.4438 10.8718 57.7419 14.5737 53.9769C15.1706 53.3705 15.4865 53.3673 16.055 53.9769C17.2016 55.2214 18.4208 56.3995 19.6337 57.5777C20.8466 58.7558 21.8447 58.7842 23.0829 57.5777C24.321 56.3711 25.6097 55.0887 26.8416 53.8095C27.2554 53.3799 27.5301 53.2725 27.9692 53.7874C28.5082 54.4407 29.109 55.0404 29.7633 55.5783C30.5561 56.21 30.5055 56.608 29.7822 57.3282C20.4034 66.646 11.0497 75.988 1.72142 85.3542C1.08971 85.9859 0.0410613 86.6176 0.00631694 87.2746C-0.0347445 88.0421 1.19078 88.5381 1.72458 89.274C2.38788 90.1805 2.83324 89.9626 3.54076 89.2519C15.1454 77.603 26.7679 65.9711 38.4083 54.3559C38.5919 54.1977 38.762 54.0244 38.9168 53.8379C39.3401 53.2599 39.6686 53.3641 40.1266 53.8379C41.2889 55.0698 42.505 56.2479 43.7084 57.4355C45.1013 58.8095 46.0236 58.8127 47.4165 57.4355C49.2485 55.6194 51.0931 53.8158 52.8746 51.9523C53.4494 51.3521 53.7684 51.2953 54.3654 51.9238C56.0868 53.7337 57.8809 55.4772 59.6497 57.2429C61.3143 58.9043 62.0913 58.8948 63.7874 57.205C65.5562 55.4393 67.3503 53.6958 69.0717 51.8891C69.6403 51.2921 69.9403 51.3584 70.4741 51.908C72.3219 53.8032 74.2107 55.6983 76.109 57.5587C77.3409 58.7685 78.32 58.7685 79.5582 57.5587C80.7142 56.4374 81.8892 55.3256 82.9632 54.1285C83.6391 53.3705 84.015 53.3105 84.792 54.0938C93.5075 62.8788 102.246 71.6354 111.008 80.3636C113.946 83.298 116.905 86.2102 119.802 89.1824C120.519 89.9183 120.973 90.13 121.697 89.2235C122.208 88.5098 122.851 87.9008 123.592 87.4294V87.1862C123.241 86.8703 122.878 86.5545 122.54 86.2197C112.887 76.5713 103.232 66.925 93.5728 57.2808C92.9695 56.6775 92.7579 56.2732 93.5602 55.6446ZM35.7298 51.3458C34.9686 52.0533 34.2263 53.3547 33.4841 53.3484C32.7418 53.342 31.9648 52.0849 31.2162 51.349C30.6098 50.7583 30.0191 50.1519 29.419 49.5549C27.8776 48.023 26.9648 48.0135 25.4486 49.517C24.2768 50.6825 23.105 51.8449 21.9553 53.0262C21.5762 53.4178 21.3014 53.62 20.8371 53.0988C20.1422 52.3187 19.3842 51.5953 18.6261 50.872C18.2629 50.5309 18.2218 50.3098 18.6261 49.9244C21.4078 47.187 24.1726 44.4275 26.9205 41.6458C27.2364 41.33 27.4607 41.172 27.8681 41.589C30.6414 44.4001 33.4398 47.1796 36.2289 49.9718C36.3647 50.1076 36.4784 50.2593 36.7563 50.5815C36.4012 50.8183 36.0585 51.0734 35.7298 51.3458ZM80.1836 51.2321C79.4066 51.987 78.6675 53.2662 77.8273 53.3389C76.9871 53.4115 76.2764 52.0217 75.5089 51.2795C74.1507 49.9592 72.8368 48.5947 71.4817 47.2744C70.2467 46.0678 69.2707 46.0615 68.0421 47.2744C66.1469 49.138 64.2517 51.0078 62.404 52.9188C61.8765 53.462 61.5764 53.5505 61.0016 52.9472C59.1917 51.0521 57.3187 49.2233 55.4583 47.3818C54.0811 46.0236 53.143 46.0331 51.7533 47.4134C49.8581 49.2864 47.9788 51.1595 46.1247 53.0641C45.6888 53.5158 45.4172 53.5126 45.0097 53.0641C44.2011 52.1734 42.7734 51.3837 42.6724 50.4361C42.5713 49.4886 44.0969 48.6863 44.9339 47.8461C50.2466 42.5018 55.5909 37.1922 60.8942 31.8416C61.5038 31.2257 61.8039 31.1372 62.4735 31.81C68.3969 37.7987 74.3465 43.7578 80.3226 49.6875C80.5646 49.9009 80.821 50.0972 81.0901 50.275C80.6732 50.7109 80.4395 50.9826 80.1741 51.2321H80.1836ZM90.5816 52.9535C90.1173 53.4431 89.7983 53.6358 89.2929 53.0009C88.5475 52.0533 86.9745 51.3774 87.0125 50.373C87.044 49.5075 88.4559 48.6863 89.2771 47.8461C91.2923 45.8183 93.3391 43.8189 95.3258 41.7627C95.8501 41.2194 96.1154 41.2384 96.6303 41.7627C99.2519 44.437 101.901 47.0838 104.577 49.7034C105.073 50.1898 105.228 50.4867 104.622 51.0047C103.867 51.6725 103.152 52.3833 102.48 53.1336C102.12 53.5221 101.908 53.4936 101.532 53.1146C100.269 51.8101 98.974 50.5499 97.6979 49.2643C97.1988 48.7653 96.6524 48.3831 95.8754 48.4147C95.1584 48.4147 94.6372 48.8474 94.1477 49.3401C92.9632 50.553 91.7471 51.728 90.5974 52.9535H90.5816Z" fill="#999999"/>
<path d="M115.834 115.774C115.029 115.187 114.824 114.704 115.203 113.712C116.196 111.144 116.392 108.337 115.764 105.657C115.137 102.976 113.716 100.547 111.687 98.6866C110.932 97.9917 110.913 97.4832 111.27 96.5766C112.85 92.6221 112.243 88.9487 109.299 85.8564C106.406 82.8147 102.805 81.8798 98.816 83.2569C92.9664 85.2752 90.4205 91.3997 92.9632 97.082C93.159 97.5179 93.3675 97.8937 92.8337 98.2001C92.5178 98.3738 92.2336 99.053 91.8861 98.5508C91.3428 97.7674 89.8646 97.7927 90.1268 96.2987C90.689 93.0927 89.713 90.3669 87.1072 88.4022C84.4287 86.3776 81.4533 86.1154 78.4874 87.701C75.6258 89.2329 74.037 91.7409 74.2897 95.0005C74.416 96.6367 74.1254 97.7326 72.7104 98.5097C72.3566 98.7055 72.145 99.5078 71.5828 98.8729C71.1185 98.3549 70.1014 98.1022 70.7458 96.9778C71.5647 95.479 71.8959 93.7621 71.6934 92.0662C71.2827 87.7263 68.9896 84.6562 64.8929 83.2222C60.7963 81.7882 57.1007 82.8179 54.2233 85.9986C51.3458 89.1793 50.7773 93.0169 52.584 96.9967C53.0135 97.9443 52.4323 98.1812 51.9965 98.636C51.4121 99.2456 51.1942 98.535 50.8594 98.3202C50.5246 98.1054 50.3193 97.8211 50.0066 97.6505C49.7272 97.5327 49.506 97.309 49.3911 97.0285C49.2763 96.7479 49.2772 96.4332 49.3938 96.1534C49.7097 95.0352 49.5549 93.9171 49.3085 92.8116C48.4494 88.9771 44.3085 86.1502 40.4645 86.7693C36.1499 87.4641 32.9629 91.2829 33.5156 95.3448C33.6988 96.6872 33.4841 97.5558 32.3091 98.1875C31.889 98.4054 31.7058 99.2551 30.9509 98.6076C30.3381 98.0801 30.0412 97.66 30.4802 96.8041C31.5573 94.7131 31.6615 92.4705 31.093 90.2216C29.7601 84.931 24.2642 81.665 18.9451 82.9569C16.3775 83.5987 14.164 85.222 12.7802 87.478C11.3965 89.7341 10.9528 92.443 11.5446 95.0226C11.7594 95.9702 12.609 96.9177 12.4322 97.6948C12.2395 98.5349 11.115 99.1319 10.5022 99.9058C7.13205 104.211 6.34556 108.949 8.29124 114.078C8.53445 114.726 8.47761 115.089 7.90907 115.478C6.86285 116.234 5.90129 117.102 5.04108 118.064C3.5218 119.682 3.51864 119.682 5.31903 121.027C5.62196 121.228 5.91109 121.448 6.18448 121.687C6.69617 122.19 7.0215 122.003 7.42263 121.51C8.66987 119.982 10.1646 118.673 11.8446 117.638C13.4997 116.599 13.7082 115.708 12.7164 114.015C11.954 112.779 11.4861 111.384 11.3487 109.937C11.0171 105.793 12.6122 102.581 16.0866 100.285C17.4164 99.4036 17.8112 98.4718 17.2679 97.3852C17.0177 96.9728 16.738 96.5791 16.4309 96.2071C15.7081 95.1811 15.3219 93.9558 15.3259 92.7007C15.3298 91.4456 15.7237 90.2228 16.453 89.2013C17.1863 88.182 18.22 87.4175 19.4094 87.0148C20.5988 86.6121 21.8843 86.5914 23.086 86.9556C27.1479 88.219 28.6546 92.9569 26.0835 96.4313C24.798 98.1685 24.8201 99.2203 26.4373 100.158C27.5996 100.849 28.612 101.765 29.4151 102.853C30.2181 103.94 30.7956 105.177 31.1134 106.491C31.4313 107.806 31.4831 109.17 31.2659 110.504C31.0486 111.839 30.5667 113.116 29.8485 114.262C28.9831 115.654 29.2895 116.621 30.6729 117.531C31.8186 118.279 32.909 119.109 33.9357 120.013C34.6654 120.645 35.076 122.032 36.033 121.908C36.9048 121.795 37.6344 120.768 38.4746 120.219C39.0621 119.833 38.9389 119.552 38.563 119.104C37.4794 117.748 36.2207 116.543 34.8201 115.519C34.1884 115.076 34.1884 114.697 34.4379 114.047C35.7399 110.884 35.8008 107.347 34.6085 104.141C33.8789 102.073 33.9768 101.782 35.8719 100.579C36.1088 100.427 36.3552 100.288 36.5953 100.143C38.5473 98.933 38.7083 98.4275 37.8271 96.3145C37.4336 95.4218 37.384 94.4152 37.6878 93.4881C37.9916 92.5611 38.6273 91.7791 39.4727 91.2924C40.2079 90.8649 41.0594 90.6811 41.9054 90.7674C42.7514 90.8536 43.5484 91.2054 44.1821 91.7724C44.8148 92.3406 45.2483 93.0969 45.4189 93.9299C45.5895 94.7629 45.4881 95.6287 45.1297 96.3997C44.3085 98.3328 44.498 98.9708 46.2984 100.054C47.0896 100.528 47.8304 101.082 48.5094 101.706C49.0084 102.164 49.0779 102.524 48.8 103.143C47.9954 104.862 47.5613 106.73 47.5259 108.627C47.4905 110.524 47.8547 112.407 48.5947 114.154C48.8379 114.754 48.7621 115.08 48.2409 115.44C46.9396 116.337 45.8815 117.502 44.7854 118.63C44.0242 119.416 43.8063 119.988 44.9623 120.572C45.4783 120.848 45.9544 121.192 46.3774 121.596C46.9238 122.092 47.2934 122.164 47.8082 121.482C48.9879 119.994 50.4246 118.73 52.0502 117.749C53.9074 116.558 54.078 115.809 52.9977 113.873C51.7292 111.669 51.3448 109.065 51.9224 106.589C52.4999 104.112 53.9963 101.947 56.1089 100.531C58.2568 99.0814 58.3831 98.3707 56.8543 96.2766C55.9858 95.0966 55.579 93.6397 55.7105 92.1805C55.842 90.7213 56.5027 89.3605 57.5682 88.3549C58.6329 87.3509 60.0262 86.768 61.4886 86.7145C62.9511 86.661 64.3831 87.1407 65.5183 88.0643C68.1147 90.1773 68.4969 93.696 66.4312 96.4882C65.1867 98.1654 65.253 99.2551 66.8576 100.209C68.0074 100.899 69.0087 101.811 69.8035 102.891C70.5983 103.971 71.1706 105.199 71.4874 106.502C71.8041 107.805 71.8589 109.158 71.6487 110.482C71.4384 111.807 70.9673 113.076 70.2625 114.217C69.3339 115.708 69.6118 116.618 71.0837 117.569C72.2238 118.325 73.3147 119.153 74.3497 120.048C75.0888 120.68 75.4142 122.095 76.4502 121.908C77.3346 121.747 78.0579 120.762 78.8949 120.203C79.4066 119.862 79.3624 119.625 78.996 119.189C77.8845 117.805 76.6 116.569 75.1741 115.512C74.6213 115.124 74.5076 114.789 74.7761 114.132C76.0712 111.014 76.1724 107.528 75.0604 104.34C74.3908 102.309 74.4002 102.265 76.1501 100.923C76.4685 100.677 76.8018 100.451 77.1482 100.247C79.4003 98.9076 79.5077 98.6202 78.5727 96.2166C78.3313 95.6174 78.24 94.9683 78.3066 94.3258C78.3733 93.6833 78.596 93.0669 78.9553 92.5301C79.3147 91.9933 79.7997 91.5524 80.3683 91.2459C80.9369 90.9393 81.5718 90.7764 82.2177 90.7712C85.2026 90.727 87.0914 93.6139 85.9227 96.4124C85.0983 98.396 85.2752 98.9677 87.0914 100.061C87.7814 100.473 88.4344 100.944 89.0434 101.469C89.5456 101.905 89.6751 102.243 89.3593 102.891C87.78 106.15 87.4483 109.593 88.6612 112.976C89.2487 114.612 88.9328 115.405 87.6283 116.352C86.3649 117.259 85.3668 118.481 84.2487 119.568C84.2655 114.304 84.2824 109.039 84.2992 103.775C84.2992 100.762 84.2992 100.8 81.3175 100.774C80.43 100.774 80.2783 101.074 80.2847 101.874C80.3162 107.262 80.2847 112.654 80.2847 118.042C80.2847 121.052 80.2847 121.018 83.2822 121.027C84.1729 121.027 84.4508 120.749 84.2297 119.922C85.2247 120.215 85.9132 120.98 86.6903 121.586C87.322 122.082 87.6757 122.142 88.2095 121.447C89.3658 119.993 90.7711 118.756 92.3599 117.793C94.2551 116.586 94.4351 115.812 93.3075 113.822C92.1941 111.932 91.7617 109.717 92.0819 107.546C92.5463 104.416 94.1445 102.025 96.7977 100.301C98.497 99.1983 98.6455 98.2159 97.4294 96.6177C97.3347 96.4882 97.2304 96.365 97.1357 96.2355C96.412 95.2102 96.0234 93.986 96.0234 92.7311C96.0234 91.4761 96.412 90.2519 97.1357 89.2266C97.8717 88.2104 98.9054 87.448 100.094 87.0451C101.282 86.6422 102.566 86.6187 103.769 86.9777C104.697 87.2567 105.545 87.7558 106.239 88.4327C106.933 89.1096 107.453 89.9442 107.755 90.8654C108.057 91.7866 108.132 92.7671 107.974 93.7236C107.815 94.68 107.428 95.5841 106.845 96.3587C105.373 98.3517 105.519 99.1319 107.622 100.531C108.642 101.188 109.521 102.04 110.209 103.039C112.543 106.532 112.736 110.159 110.759 113.867C109.669 115.901 109.811 116.561 111.757 117.818C113.341 118.787 114.744 120.026 115.901 121.479C116.387 122.111 116.747 122.13 117.335 121.621C118.09 120.961 118.914 120.395 119.735 119.783C118.653 118.25 117.337 116.898 115.834 115.774Z" fill="#999999"/>
<path d="M9.68733 26.0266C13.525 26.5415 17.41 26.0993 20.5402 26.2256C24.4916 26.2256 27.7133 26.2256 30.9351 26.2256C35.2939 26.1972 38.6673 23.5377 39.3811 19.5926C40.0949 15.6475 38.0103 12.1352 33.9231 10.5148C33.7209 10.4419 33.5425 10.3151 33.4072 10.1481C33.2719 9.98105 33.1849 9.78019 33.1555 9.56725C31.9205 4.64303 28.8788 1.41498 23.8978 0.337903C18.6324 -0.802342 14.422 1.07071 11.3045 5.4106C11.1735 5.632 10.9894 5.81726 10.7688 5.94962C10.5482 6.08198 10.2981 6.15726 10.0411 6.16866C7.80917 6.30899 5.70832 7.27106 4.14401 8.86922C1.26971 11.7119 0.300033 15.1611 1.4845 19.0304C2.71319 23.0481 5.51485 25.4676 9.68733 26.0266ZM8.63552 10.7107C9.48867 10.2426 10.4562 10.0237 11.4277 10.0789C12.8585 10.2179 13.6387 9.55464 14.2704 8.36069C15.5686 5.8591 17.6785 4.47882 20.4644 4.11243C22.5252 3.87843 24.5967 4.45069 26.2452 5.70941C27.8937 6.96814 28.9913 8.81575 29.3084 10.8655C29.3558 11.2255 29.3842 11.5856 29.4347 11.9457C29.6369 13.3891 30.1549 13.9166 31.5573 14.1219C34.0684 14.4883 35.5971 16.134 35.4581 18.3197C35.3128 20.6318 33.5946 22.1321 31.0361 22.1416C27.7733 22.1416 24.5105 22.1416 21.2446 22.1416C17.8617 22.1416 14.4789 22.1858 11.0992 22.1416C9.76032 22.1135 8.46902 21.6398 7.42958 20.7954C6.39014 19.9511 5.66191 18.7842 5.36008 17.4795C5.06318 16.1472 5.22514 14.7537 5.81969 13.525C6.41425 12.2963 7.40653 11.3046 8.63552 10.7107Z" fill="#999999"/>
<path d="M92.2336 26.2067C95.4995 26.2509 98.7655 26.2067 102.025 26.2067H111.817C117.591 26.2067 121.694 22.2458 122.328 17.0658C122.96 12.0342 118.797 6.64245 113.734 6.18129C113.364 6.16497 113.003 6.05973 112.682 5.87446C112.361 5.68918 112.089 5.42932 111.889 5.11686C108.936 1.16864 104.941 -0.612803 100.07 0.18C94.931 1.01702 91.6745 4.18192 90.3005 9.18826C90.2404 9.5295 90.0879 9.84772 89.8596 10.1083C89.6313 10.369 89.3359 10.562 89.0055 10.6665C86.0143 11.851 84.2361 14.1093 83.9518 17.2995C83.5412 22.3848 87.0882 26.1435 92.2336 26.2067ZM91.7314 14.1314C93.3896 13.9072 93.8318 13.3544 94.0655 11.2066C94.3656 8.43969 95.7712 6.38977 98.1717 5.04738C99.0841 4.52922 100.091 4.19809 101.133 4.07339C102.174 3.94869 103.231 4.03293 104.24 4.32112C105.249 4.60931 106.19 5.09571 107.009 5.75189C107.828 6.40807 108.508 7.22087 109.009 8.1428C109.748 9.52941 110.623 10.0885 112.212 10.1043C112.999 10.1054 113.779 10.2634 114.504 10.5693C115.23 10.8751 115.888 11.3225 116.438 11.8854C116.989 12.4483 117.422 13.1153 117.712 13.8475C118.002 14.5797 118.144 15.3624 118.128 16.1498C118.102 19.5073 115.496 22.0911 112.013 22.1511C108.709 22.1921 105.405 22.1511 102.104 22.1511C98.8034 22.1511 95.4964 22.1511 92.1957 22.1511C89.7604 22.1511 88.0516 20.5718 87.9253 18.3102C87.8021 16.1529 89.3498 14.4599 91.7314 14.1409V14.1314Z" fill="#999999"/>
<path d="M104.044 95.5659C104.044 92.7421 104.044 92.7831 101.169 92.7231C100.222 92.7042 99.969 92.96 99.9784 93.9139C100.029 98.5002 100.001 103.074 100.001 107.676L99.7036 107.84C99.1351 107.23 98.5381 106.646 98.0106 106.005C97.5495 105.446 97.2147 105.528 96.7883 106.037C96.1218 106.832 94.7826 107.442 94.8015 108.317C94.8173 109.053 96.065 109.761 96.7472 110.481C96.7987 110.544 96.8569 110.601 96.9209 110.651C99.5489 112.474 100.37 114.941 100.061 118.112C99.7795 120.983 100.004 120.954 102.856 121.024C103.93 121.052 104.069 120.67 104.066 119.726C104.028 111.678 104.044 103.623 104.044 95.5659Z" fill="#999999"/>
<path d="M23.4145 95.9133C23.4145 92.6347 23.4145 92.6568 20.1296 92.7358C19.4758 92.7358 19.3305 92.9474 19.3431 93.557C19.381 95.2879 19.3431 97.0314 19.3431 98.756V108.083C18.5061 107.234 17.8554 106.599 17.2395 105.935C16.9237 105.585 16.7057 105.493 16.2698 105.866C13.6893 108.077 13.6766 108.077 16.0203 110.421C16.1238 110.545 16.2391 110.659 16.3646 110.762C18.9451 112.527 19.6685 114.953 19.4 118.026C19.1378 121.024 19.3431 120.996 22.3122 121.037C23.2598 121.037 23.424 120.721 23.4209 119.862C23.4019 111.874 23.4145 103.908 23.4145 95.9133Z" fill="#999999"/>
<path d="M62.8019 92.7453C62.0386 92.8022 61.2721 92.8022 60.5088 92.7453C59.7918 92.6853 59.6497 92.9664 59.6592 93.6297C59.6971 96.0428 59.6592 98.4591 59.6592 100.875V107.698L59.378 107.805L57.5303 105.91C57.2744 105.651 57.0533 105.357 56.6617 105.787C55.9036 106.618 54.7002 107.306 54.4507 108.254C54.2612 109.006 55.6762 109.647 56.3047 110.405C56.403 110.532 56.5177 110.646 56.6459 110.743C59.1727 112.524 59.994 114.906 59.7097 118.008C59.4254 121.109 59.6497 121.062 62.7546 121.005C63.4084 121.005 63.6642 120.866 63.6642 120.146C63.6411 111.302 63.6411 102.446 63.6642 93.5792C63.7021 92.8748 63.4652 92.7011 62.8019 92.7453Z" fill="#999999"/>
<path d="M43.5505 110.882V103.762C43.5505 100.762 43.5505 100.803 40.5814 100.762C39.6559 100.762 39.4538 101.024 39.4601 101.911C39.5043 107.259 39.4822 112.61 39.4822 117.96C39.4822 121.084 39.4822 121.052 42.6408 121.024C43.4241 121.024 43.5599 120.756 43.5536 120.051C43.5347 116.997 43.5505 113.939 43.5505 110.882Z" fill="#999999"/>
</g>
<defs>
<clipPath id="clip0_12_51">
<rect width="123.62" height="122" fill="white"/>
</clipPath>
</defs>
</svg>
