<svg width="122" height="122" viewBox="0 0 122 122" fill="none" xmlns="http://www.w3.org/2000/svg">
<g clip-path="url(#clip0_12_76)">
<path d="M121.981 28.3596C121.981 22.0553 118.061 17.0024 112.111 15.5919C109.882 15.0602 107.605 15.2544 105.351 15.2958C104.329 15.2958 104.132 14.9997 104.138 14.0222C104.154 11.9654 104.374 9.88302 103.899 7.85483C103.343 5.44211 101.924 3.31599 99.9093 1.87681C97.8946 0.437638 95.4232 -0.21523 92.9605 0.0411346C90.4978 0.297499 88.2138 1.44542 86.5387 3.26871C84.8636 5.092 83.9129 7.46482 83.8657 9.94034C83.8338 11.4464 83.8306 12.9555 83.8657 14.4647C83.8816 15.0761 83.7224 15.2671 83.0856 15.2639C79.3922 15.2321 75.6999 15.2321 72.0086 15.2639C71.3463 15.2639 71.1235 15.1016 71.1489 14.4138C71.2031 13.067 71.1871 11.717 71.1489 10.367C71.0343 4.47028 66.6373 0.00320061 60.9602 0.00320061C55.2832 0.00320061 50.8862 4.48621 50.7716 10.3734C50.7461 11.7234 50.727 13.0765 50.7716 14.4234C50.8002 15.1206 50.555 15.2671 49.9023 15.2607C46.2111 15.2331 42.5198 15.2331 38.8285 15.2607C38.1917 15.2607 38.0644 15.0474 38.0516 14.4552C38.0102 12.3952 38.2458 10.3161 37.8701 8.27832C37.4184 5.83626 36.0854 3.6452 34.1244 2.12132C32.1634 0.597448 29.711 -0.153074 27.233 0.0123343C24.755 0.177742 22.4241 1.24753 20.683 3.01852C18.9419 4.78952 17.912 7.13832 17.7888 9.61876C17.7273 11.1662 17.7273 12.7146 17.7888 14.2642C17.8143 15.0219 17.6264 15.2703 16.8177 15.2703C14.7991 15.2703 12.7677 15.057 10.7682 15.4263C5.37772 16.4133 1.93589 19.5655 0.378931 24.8126C0.28978 25.131 0.378922 25.5513 -0.0286255 25.7264V94.8185C1.06029 96.3659 2.00271 96.8308 3.27948 96.4455C4.50531 96.0794 5.03066 95.1019 5.03385 93.1788V92.4624C5.03385 77.2558 5.02754 62.0502 5.0148 46.8457C5.0148 45.9892 5.17398 45.6995 6.10369 45.7154C9.79391 45.7759 13.4873 45.7409 17.1775 45.7409H115.677C116.348 45.7409 116.925 45.588 116.922 46.6961C116.881 62.1425 116.881 77.5869 116.922 93.0291C116.922 93.8951 116.638 94.0702 115.839 94.0639C111.273 94.0289 106.707 94.0352 102.148 94.0639C97.1746 94.0639 94.0512 97.1905 94.0384 102.154C94.0384 106.682 94.0034 111.21 94.0607 115.734C94.0607 116.75 93.7423 116.969 92.7871 116.957C89.0555 116.902 85.324 116.931 81.5924 116.934C79.7648 116.934 77.9371 116.89 76.1127 116.963C75.6942 116.973 75.2848 117.087 74.922 117.296C74.5591 117.505 74.2545 117.801 74.0359 118.158C73.8174 118.515 73.6918 118.921 73.6708 119.339C73.6498 119.757 73.7341 120.174 73.9158 120.551C74.2087 121.188 74.871 121.456 75.2626 121.997H97.181C97.8452 121.648 98.4457 121.189 98.9576 120.64C106.194 113.394 113.437 106.154 120.688 98.9226C121.099 98.5546 121.426 98.1033 121.649 97.5987C121.871 97.0941 121.983 96.5479 121.978 95.9966C121.973 73.4541 121.975 50.9084 121.981 28.3596ZM115.683 40.7197C97.458 40.69 79.233 40.6826 61.008 40.6974C42.8212 40.6974 24.6355 40.707 6.45077 40.7261C5.28544 40.7261 5.00838 40.43 5.03385 39.2902C5.11345 35.7177 5.05617 32.1453 5.06572 28.5697C5.06572 23.5327 8.28471 20.3424 13.344 20.3264C14.4966 20.3264 15.6492 20.3838 16.7955 20.3074C17.6742 20.25 17.8589 20.5907 17.8335 21.3931C17.7412 22.661 17.8216 23.9356 18.0722 25.182C18.5424 27.2028 19.6206 29.0309 21.1617 30.4199C22.7028 31.809 24.6326 32.6924 26.6912 32.9509C27.9152 33.0877 29.1484 33.1228 30.3782 33.0559C31.9384 32.9986 33.0082 31.9511 33.0432 30.5597C33.0782 29.1683 31.9638 28.038 30.3559 27.9616C29.4867 27.9202 28.6079 27.9616 27.7387 27.9329C26.4539 27.9001 25.2317 27.3713 24.3283 26.4572C23.4249 25.5431 22.9104 24.3147 22.8927 23.0296C22.846 18.7037 22.846 14.3756 22.8927 10.0454C22.9176 8.78219 23.4146 7.5741 24.2857 6.65898C25.1568 5.74385 26.3391 5.18803 27.5995 5.10097C28.86 5.0139 30.1073 5.40192 31.096 6.18857C32.0846 6.97523 32.743 8.10353 32.9413 9.35132C33.2311 11.1216 32.9923 12.9173 33.0687 14.7004C33.091 15.2193 32.8171 15.2798 32.4064 15.2671C31.811 15.2671 31.2156 15.2671 30.6202 15.2671C29.0824 15.3181 27.9902 16.3401 27.9552 17.7474C27.9202 19.1547 29.0442 20.2946 30.6393 20.2946C36.673 20.3169 42.7097 20.2946 48.7465 20.2946C50.8002 20.2946 50.8002 20.2946 50.8129 22.326C50.8416 27.5604 53.8536 31.5595 58.6805 32.7343C60.3534 33.0961 62.0744 33.1811 63.7748 32.9859C64.4022 32.9272 64.9849 32.6355 65.4077 32.1683C65.8305 31.7011 66.0629 31.0924 66.0589 30.4623C66.0549 29.8322 65.8148 29.2265 65.3861 28.7647C64.9574 28.3029 64.3711 28.0187 63.743 27.968C62.7878 27.8724 61.8326 27.9425 60.8775 27.9075C58.0756 27.8056 55.9805 25.7742 55.9455 22.985C55.8903 18.6591 55.8903 14.3321 55.9455 10.004C55.9825 8.68787 56.5323 7.4383 57.4778 6.52193C58.4232 5.60557 59.6894 5.09498 61.006 5.09914C62.3227 5.10329 63.5855 5.62185 64.5252 6.54417C65.4648 7.46648 66.0068 8.71953 66.0355 10.0359C66.0832 11.5419 66.0355 13.0543 66.061 14.5603C66.061 15.0665 65.9368 15.283 65.4019 15.2417C64.867 15.2003 64.2907 15.2226 63.7335 15.2417C62.1256 15.2799 61.0016 16.3147 60.992 17.7602C60.9825 19.2057 62.0682 20.2851 63.7016 20.2914C69.8562 20.3105 76.0108 20.2914 82.1686 20.2914C83.8625 20.2914 83.9039 20.2914 83.8529 21.9598C83.7415 25.7551 85.066 28.8659 88.1608 31.1328C90.8354 33.0878 93.892 33.2661 97.0346 32.9286C97.6149 32.8541 98.1471 32.5678 98.5292 32.1246C98.9112 31.6815 99.116 31.1128 99.1042 30.5279C99.1314 29.9251 98.9326 29.3338 98.5469 28.8698C98.1612 28.4057 97.6163 28.1023 97.0186 28.0189C96.0729 27.9259 95.1222 27.8918 94.1722 27.917C91.1124 27.847 88.9823 25.8156 88.9409 22.7654C88.8836 18.5976 88.8899 14.4266 88.9409 10.2587C88.9759 7.29129 91.2174 5.05296 94.0352 5.04659C96.9008 5.04659 99.0946 7.32948 99.1296 10.367C99.1296 11.6756 99.0723 12.9906 99.1519 14.296C99.1996 15.1207 98.894 15.3181 98.1522 15.2512C97.6371 15.2114 97.1198 15.2114 96.6047 15.2512C95.0828 15.3244 94.0576 16.3847 94.083 17.8366C94.1085 19.2885 95.0923 20.2691 96.6015 20.285C100.531 20.3233 104.463 20.2851 108.382 20.3042C113.82 20.3042 116.928 23.4212 116.931 28.8754C116.931 32.4096 116.89 35.9438 116.957 39.478C116.969 40.5223 116.638 40.7197 115.683 40.7197ZM99.1264 112.76C99.1264 109.258 99.1009 105.456 99.1264 101.664C99.1264 100.12 100.218 99.1423 101.833 99.1168C105.558 99.0977 109.28 99.1168 112.751 99.1168L99.1264 112.76Z" fill="#999999"/>
<path d="M56.9357 86.2154C51.8159 77.4192 46.6992 68.6208 41.5858 59.8203C40.6306 58.1838 39.4589 56.8656 37.6154 56.2606C34.4856 55.229 31.4767 56.509 29.6332 59.763C19.8297 76.9819 9.3641 93.8315 6.10352e-05 111.292V115.113C0.369401 115.196 0.296139 115.552 0.366186 115.782C1.32138 118.829 3.23175 120.876 6.32975 121.764C6.48576 121.809 6.63225 121.838 6.67364 122.022H64.09C64.1633 121.946 64.227 121.815 64.3098 121.806C66.7232 121.487 68.5062 120.15 69.7225 118.131C71.6998 114.858 71.6329 111.515 69.7225 108.217C65.4666 100.872 61.2043 93.5385 56.9357 86.2154ZM65.9495 114.177C65.5483 116.017 64.2843 116.934 62.1988 116.934H9.34495C5.57514 116.934 3.96085 114.027 5.90944 110.675C13.1859 98.151 20.4698 85.6274 27.761 73.1038C29.8731 69.4741 31.9851 65.8465 34.0971 62.221C35.0523 60.5908 36.1444 60.5813 37.0901 62.2051C46.4934 78.3584 55.8945 94.5107 65.2936 110.662C65.9591 111.704 66.1943 112.965 65.9495 114.177Z" fill="#999999"/>
<path d="M73.6897 86.1518C73.7088 87.9666 74.6958 88.925 76.517 88.9377C79.7328 88.9611 82.9497 88.9611 86.1676 88.9377C88.0016 88.9377 88.8995 87.9826 88.9249 86.1136C88.944 84.5216 88.9249 82.9296 88.9249 81.3376C88.9249 79.7456 88.9249 78.1537 88.9249 76.5617C88.8995 74.6513 87.9697 73.6961 86.0594 73.6961C82.8754 73.6685 79.6989 73.6685 76.5298 73.6961C74.7117 73.7152 73.7056 74.6991 73.6833 76.4948C73.6494 79.7149 73.6515 82.9339 73.6897 86.1518ZM81.4649 78.8287C83.8656 78.8287 83.8656 78.8287 83.8656 81.188C83.8656 83.888 83.8656 83.888 81.2134 83.888C78.8031 83.888 78.8032 83.888 78.8032 81.535C78.8032 78.8191 78.8031 78.8191 81.4649 78.8191V78.8287Z" fill="#999999"/>
<path d="M94.0607 86.2791C94.0607 87.9825 95.0159 88.9123 96.732 88.9441C98.4482 88.9759 100.066 88.9441 101.734 88.9441H106.618C108.236 88.8741 109.248 87.9889 109.277 86.3523C109.334 83.0177 109.334 79.683 109.277 76.3484C109.248 74.7564 108.242 73.7407 106.634 73.7152C103.302 73.6643 99.967 73.6643 96.6302 73.7152C95.0127 73.7439 94.083 74.7627 94.0575 76.3834C94.0321 79.6798 94.0331 82.9784 94.0607 86.2791ZM101.779 78.8286C104.173 78.8286 104.173 78.8286 104.173 81.2071C104.173 83.8879 104.173 83.888 101.502 83.888C99.1136 83.888 99.1136 83.888 99.1136 81.5191C99.1136 78.8191 99.1137 78.8191 101.775 78.8191L101.779 78.8286Z" fill="#999999"/>
<path d="M76.482 109.302C79.6978 109.341 82.9137 109.341 86.1295 109.302C87.9475 109.283 88.909 108.296 88.9217 106.481C88.9472 103.266 88.9472 100.049 88.9217 96.8308C88.9058 94.9873 87.9666 94.0926 86.104 94.0671C84.512 94.048 82.92 94.0671 81.328 94.0671C79.736 94.0671 78.1441 94.0671 76.5521 94.0671C74.6417 94.0894 73.6865 95.0223 73.6642 96.9327C73.6345 100.117 73.6345 103.293 73.6642 106.462C73.7056 108.248 74.6926 109.28 76.482 109.302ZM81.3121 99.1137C83.8593 99.1137 83.8593 99.1137 83.8593 101.661C83.8593 104.163 83.8592 104.163 81.3598 104.163C78.7967 104.163 78.7968 104.163 78.7968 101.594C78.8032 99.1296 78.8031 99.1296 81.3121 99.1296V99.1137Z" fill="#999999"/>
<path d="M76.5202 68.6272C79.7296 68.6421 82.9391 68.6421 86.1485 68.6272C87.9061 68.6272 88.9027 67.672 88.9186 65.924C88.9483 62.636 88.9483 59.3459 88.9186 56.0537C88.9027 54.3853 87.9061 53.4142 86.2441 53.3855C84.582 53.3569 82.9932 53.3855 81.3694 53.3855C79.7456 53.3855 78.1854 53.3855 76.6126 53.3855C74.734 53.3855 73.712 54.3408 73.6929 56.2066C73.661 59.416 73.661 62.6254 73.6929 65.8349C73.712 67.6338 74.734 68.6177 76.5202 68.6272ZM81.5127 58.4385C83.8657 58.4385 83.8656 58.4385 83.8656 60.9857C83.8656 63.5329 83.8656 63.5551 81.293 63.5551C78.8031 63.5551 78.8032 63.5551 78.8032 61.1226C78.8032 58.4449 78.8032 58.4449 81.5127 58.4449V58.4385Z" fill="#999999"/>
<path d="M94.0575 65.8794C94.0861 67.637 95.0477 68.6145 96.783 68.624C100.035 68.6452 103.285 68.6452 106.532 68.624C108.194 68.624 109.251 67.6688 109.277 66.0004C109.334 62.67 109.334 59.3417 109.277 56.0155C109.251 54.3566 108.194 53.4015 106.532 53.3887C103.28 53.3696 100.031 53.3696 96.783 53.3887C95.0445 53.3887 94.0893 54.3726 94.0575 56.1333C94.032 57.7253 94.0575 59.3173 94.0575 60.887C94.0511 62.5522 94.032 64.2174 94.0575 65.8794ZM101.629 58.4449C104.176 58.4449 104.176 58.4449 104.176 61.0589C104.176 63.5679 104.176 63.5679 101.645 63.5679C99.1137 63.5679 99.0977 63.5679 99.0977 60.957C99.1137 58.4449 99.1136 58.4449 101.629 58.4449Z" fill="#999999"/>
<path d="M68.6081 56.111C68.6081 54.4458 67.5892 53.4078 65.9526 53.3919C62.6583 53.3664 59.3682 53.3664 56.0823 53.3919C54.4235 53.3919 53.4205 54.4172 53.3919 56.076C53.3632 57.7349 53.3919 59.33 53.3919 60.9602C53.3919 62.5904 53.3919 64.2142 53.3919 65.8444C53.4142 67.586 54.398 68.6113 56.111 68.624C59.365 68.6453 62.6211 68.6453 65.8794 68.624C67.6083 68.624 68.6176 67.6083 68.6303 65.8763C68.6409 62.6222 68.6335 59.3672 68.6081 56.111ZM60.9666 63.5711C58.4194 63.5711 58.4194 63.571 58.4194 60.9474C58.4194 58.4449 58.4194 58.4449 60.9666 58.4449C63.5583 58.4449 63.5583 58.4449 63.5583 61.008C63.5583 63.5711 63.5678 63.5711 60.9634 63.5711H60.9666Z" fill="#999999"/>
<path d="M63.5678 86.3237C63.5933 87.9157 64.6026 88.9186 66.0545 88.9313C67.5064 88.9441 68.6017 87.8743 68.6017 86.2568C68.6017 84.6394 68.6017 83.006 68.6017 81.379C68.6017 79.752 68.6017 78.195 68.6017 76.619C68.6017 74.7436 67.6274 73.7279 65.7711 73.7025C63.4309 73.6674 61.0876 73.6706 58.7474 73.7025C57.0089 73.7279 55.9327 74.7341 55.9295 76.2496C55.9263 77.7652 57.0057 78.7713 58.741 78.7968C60.0146 78.8255 61.2881 78.8446 62.5617 78.7968C63.3227 78.7618 63.5933 78.9592 63.5742 79.7711C63.5169 81.9585 63.5296 84.1427 63.5678 86.3237Z" fill="#999999"/>
<path d="M35.6445 73.7088C34.1034 73.661 33.0686 74.855 33.0623 76.7335C33.0623 80.3442 33.0623 83.958 33.0623 87.559V98.6297C33.0623 99.2665 33.0623 99.9033 33.4348 100.464C33.724 100.917 34.1504 101.267 34.6521 101.462C35.1537 101.656 35.7044 101.686 36.224 101.546C37.4371 101.228 38.1184 100.304 38.1184 98.8749C38.1184 91.4944 38.1184 84.114 38.1184 76.7335C38.1184 74.9123 37.1601 73.7534 35.6445 73.7088Z" fill="#999999"/>
<path d="M35.6349 106.755C34.9779 106.744 34.3426 106.991 33.8662 107.444C33.3897 107.897 33.1102 108.518 33.0878 109.175C33.0641 109.511 33.11 109.849 33.2226 110.166C33.3352 110.484 33.5121 110.775 33.7421 111.021C33.9722 111.267 34.2505 111.463 34.5597 111.597C34.869 111.731 35.2025 111.799 35.5394 111.799C35.8758 111.809 36.2109 111.752 36.5247 111.631C36.8386 111.509 37.1249 111.326 37.3664 111.091C37.6079 110.857 37.7998 110.576 37.9306 110.266C38.0615 109.956 38.1286 109.623 38.128 109.286C38.1192 108.624 37.8549 107.991 37.3903 107.52C36.9257 107.048 36.2968 106.774 35.6349 106.755Z" fill="#999999"/>
</g>
<defs>
<clipPath id="clip0_12_76">
<rect width="122.003" height="122" fill="white"/>
</clipPath>
</defs>
</svg>
