<svg width="160" height="122" viewBox="0 0 160 122" fill="none" xmlns="http://www.w3.org/2000/svg">
<g clip-path="url(#clip0_12_14)">
<path d="M159.424 98.7827C159.444 97.1805 159.065 95.5985 158.32 94.1798C145.838 69.7741 133.381 45.3593 120.951 20.9354C117.801 14.7592 114.651 8.58692 111.499 2.41853C110.235 -0.0467477 109.049 -0.491434 106.448 0.468152C105.141 0.955746 103.846 1.48623 102.547 1.96212C95.464 4.56782 87.863 5.4516 80.3712 4.54052C74.3913 3.81888 68.5948 2.2469 62.8529 0.472057C59.7323 -0.49143 58.7493 -0.0350701 57.3255 2.9295C45.4711 27.633 33.4997 52.2858 21.8013 77.0634C15.196 91.0541 7.93282 104.679 0.0116882 117.939V119.808C2.1532 122.761 4.47415 122.714 6.2529 119.691C6.54155 119.199 6.82633 118.704 7.10719 118.212L12.2094 109.284C12.4746 112.252 12.4668 115.135 12.4746 118.017C12.4824 120.9 13.5981 121.984 16.43 121.984H155.41C158.347 121.984 159.42 120.888 159.424 117.912C159.424 111.546 159.373 105.164 159.424 98.7827ZM34.8727 86.3705C34.8727 95.6582 34.8377 104.946 34.9079 114.234C34.9079 115.576 34.5178 115.825 33.2851 115.794C28.8773 115.712 24.4655 115.728 20.0538 115.794C19.0357 115.794 18.6339 115.654 18.6495 114.491C18.7236 109.248 18.6885 104.01 18.6729 98.7671C18.6627 98.1482 18.7963 97.5353 19.063 96.9767C31.7405 70.5946 44.4127 44.2099 57.0797 17.8226C57.1617 17.651 57.2748 17.4871 57.6024 16.9293V45.0655C57.6024 55.7028 57.5673 66.3402 57.6415 76.9776C57.6415 78.3701 57.1812 78.7758 55.9368 79.0059C49.9765 80.0942 44.0278 81.2528 38.0831 82.4113C35.6334 82.8872 34.8727 83.8467 34.8727 86.3705ZM41.1139 106.128C41.1139 100.577 41.1139 95.0264 41.0749 89.4795C41.0749 88.4887 41.2622 88.0557 42.3232 87.8723C46.224 87.1975 50.1481 86.4095 54.435 85.5943L41.3636 107.263C40.876 106.943 41.11 106.502 41.11 106.112L41.1139 106.128ZM43.548 115.7L60.7113 87.2482L77.8747 115.7H43.548ZM67.5299 86.156C67.5299 86.1092 67.5299 86.0663 67.5299 86.0195V86.156ZM80.3282 107.103C80.0357 107.325 79.9616 107.076 79.8718 106.928C75.8385 100.249 71.8077 93.57 67.7795 86.8893C67.6508 86.6787 67.4791 86.4993 67.5572 86.2145C70.2877 86.3666 72.8622 87.3067 75.5147 87.8684C77.1101 88.2078 79.2984 88.0284 80.1098 89.2259C80.8626 90.3337 80.3204 92.327 80.3243 93.9302C80.3321 98.3303 80.3243 102.73 80.3243 107.103H80.3282ZM102.079 115.798C97.3121 115.728 92.5415 115.728 87.767 115.798C86.6826 115.798 86.5343 115.435 86.5383 114.487C86.5695 105.465 86.5578 96.4384 86.5383 87.416C86.5383 84.7908 85.8634 83.9053 83.3045 83.2968C77.2115 81.8587 71.116 80.4375 65.0178 79.0333C64.2376 78.8577 63.7851 78.6861 63.7851 77.6836C63.8242 57.6597 63.8346 37.6423 63.8164 17.6315C63.8429 17.3695 63.8833 17.1091 63.9373 16.8513C70.0966 29.4937 76.1037 41.8161 82.0953 54.1113C88.9918 68.2866 95.8831 82.4594 102.769 96.6295C103.149 97.3596 103.349 98.1703 103.35 98.9934C103.323 104.127 103.308 109.26 103.35 114.394C103.397 115.435 103.226 115.817 102.083 115.798H102.079ZM107.871 92.8966C97.251 70.9899 86.6098 49.0923 75.9477 27.2039C75.8091 26.8759 75.6905 26.5399 75.5927 26.1975L75.6746 26.0961C77.3481 26.0961 78.9279 26.6188 80.5506 26.9074C82.6063 27.2702 84.268 26.3613 84.662 24.567C85.056 22.7726 83.9559 21.2124 81.8651 20.7989C78.8186 20.1982 75.7722 19.6286 72.7764 18.7861C72.3122 18.6574 71.7037 18.7042 71.4969 18.0645C71.4205 17.873 71.3319 17.6867 71.2317 17.5066L66.6912 8.20333L73.2328 9.66611C84.1861 12.108 94.9405 11.4878 105.449 7.46999C106.514 7.06041 107.009 7.20862 107.548 8.28523C121.85 36.4019 136.166 64.503 150.495 92.5884C150.694 92.9785 151.065 93.3334 150.94 93.9615H149.769C136.439 93.9615 123.109 93.9615 109.779 93.9615C108.839 93.9966 108.324 93.8093 107.868 92.8966H107.871ZM110.364 115.782C109.752 115.782 109.584 115.579 109.584 115.002C109.607 112.225 109.584 109.444 109.584 106.257L116.952 115.786C114.565 115.771 112.459 115.751 110.36 115.782H110.364ZM153.202 114.397C153.202 115.419 153.058 115.806 151.899 115.798C143.24 115.743 134.576 115.759 125.916 115.798C125.589 115.83 125.258 115.775 124.959 115.638C124.659 115.501 124.401 115.287 124.212 115.018C120.502 110.153 116.761 105.32 112.822 100.195H114.468C126.864 100.195 139.261 100.187 151.657 100.171C152.777 100.171 153.249 100.32 153.218 101.634C153.112 105.89 153.144 110.146 153.183 114.397H153.202Z" fill="#999999"/>
<path d="M94.0433 21.4971C93.237 21.5338 92.4732 21.8692 91.9007 22.4382C91.3282 23.0071 90.9879 23.7687 90.9461 24.5748C90.9497 24.9892 91.035 25.3988 91.1973 25.7801C91.3595 26.1614 91.5954 26.507 91.8915 26.7969C92.1876 27.0868 92.538 27.3154 92.9227 27.4696C93.3073 27.6238 93.7186 27.7005 94.133 27.6954C94.9402 27.6651 95.7042 27.323 96.2644 26.741C96.8245 26.159 97.1372 25.3825 97.1366 24.5748C97.1073 23.7652 96.7715 22.9969 96.1972 22.4255C95.623 21.8542 94.853 21.5223 94.0433 21.4971Z" fill="#999999"/>
</g>
<defs>
<clipPath id="clip0_12_14">
<rect width="159.424" height="122" fill="white"/>
</clipPath>
</defs>
</svg>
