<svg width="127" height="122" viewBox="0 0 127 122" fill="none" xmlns="http://www.w3.org/2000/svg">
<g clip-path="url(#clip0_12_2)">
<path d="M124.396 62.6033C122.373 62.6331 120.352 62.6157 118.329 62.6033C117.583 62.6033 116.914 62.8071 116.452 63.3863C115.063 65.1262 113.656 66.8662 112.363 68.6757C111.739 69.5506 111.866 70.5698 112.54 71.4472C113.213 72.3246 114.165 72.5433 115.202 72.2749C115.562 72.1687 115.896 71.9877 116.182 71.7435C116.468 71.4994 116.699 71.1976 116.86 70.8581C118.316 68.0965 120.511 66.9904 123.598 67.5596C125.09 67.8356 126.211 67.157 126.971 65.8644V64.373C126.4 63.3713 125.701 62.5834 124.396 62.6033Z" fill="white"/>
<path d="M104.238 82.9755C103.102 82.1155 101.692 82.359 100.656 83.6342C99.6914 84.8223 98.751 86.0295 97.8346 87.2557C97.6915 87.4769 97.4924 87.6561 97.2575 87.7753C97.0226 87.8945 96.7603 87.9494 96.4974 87.9343C93.44 87.9028 90.3819 87.9028 87.3229 87.9343C86.6741 87.9343 86.4082 87.7404 86.2217 87.0942C83.5124 77.6952 80.7782 68.3044 78.0191 58.922C77.8377 58.3006 77.9669 58.0719 78.5163 57.7885C79.3142 57.3906 80.0212 56.8318 80.5927 56.1474C81.1642 55.4629 81.5879 54.6676 81.8371 53.8115C83.1719 49.3846 80.0027 45.2385 75.1805 45.1689C74.2708 45.154 73.8756 44.893 73.6668 44.0231C73.3089 42.5317 72.8416 41.0826 72.424 39.616C71.8672 37.6946 70.6691 36.8545 69.128 37.2969C67.669 37.7145 67.1196 39.0766 67.6516 40.9458C67.9565 42.0163 68.2614 43.0885 68.5663 44.1623C68.6533 44.468 68.9192 44.8458 68.5862 45.0621C68.421 45.1501 68.236 45.1943 68.0488 45.1904C67.8617 45.1864 67.6787 45.1346 67.5173 45.0397C67.2431 44.8596 66.9926 44.6458 66.7716 44.4034C64.3208 42.0594 61.9097 39.6807 59.4017 37.3914C58.5243 36.591 58.4423 36.253 59.4564 35.465C61.3904 33.9482 62.8054 31.8679 63.5059 29.5119C64.2063 27.156 64.1575 24.6406 63.3663 22.3135C62.5923 19.9627 61.1094 17.9092 59.1212 16.4351C57.1331 14.961 54.7373 14.1387 52.263 14.0811C49.8277 14.0043 47.4278 14.6787 45.389 16.0127C43.3501 17.3467 41.7712 19.2758 40.8663 21.538C38.9698 26.303 39.9516 30.6081 43.3023 34.5428C42.9325 34.7185 42.579 34.9265 42.2459 35.1642C41.6617 35.6614 41.3734 35.5446 40.9608 34.8883C38.7635 31.3935 34.8014 29.9171 31.0928 31.1599C27.2997 32.4251 24.9583 36.0516 25.3087 40.2573C25.4032 41.3858 25.8059 42.482 24.6252 43.3345C24.3766 43.506 24.3617 44.0106 24.2971 44.3711C23.8397 46.8931 23.3915 49.4161 22.9524 51.9398C22.2265 56.1654 21.4113 60.391 20.8271 64.6588C20.5933 66.2147 20.9548 67.8016 21.8394 69.1027C22.724 70.4038 24.0667 71.3235 25.5996 71.6782C27.4762 72.1406 29.3827 72.578 31.3165 72.6004C32.0622 72.6004 32.0896 72.8937 32.0498 73.4679C31.8261 76.8534 31.614 80.2404 31.4135 83.6292C31.3691 84.2474 31.2 84.8503 30.9163 85.4014C29.1242 89.0702 27.3718 92.7614 25.5623 96.4228C24.4288 98.722 24.1305 101.071 24.9856 103.504C25.2342 104.19 25.0751 104.436 24.3791 104.33C22.3086 104.006 20.6507 104.879 18.9977 106C15.8857 108.1 12.6842 110.066 9.51998 112.09C6.77252 113.845 4.02507 115.599 1.27762 117.354C0.318163 117.971 -0.151624 118.863 0.07954 119.997C0.298276 121.065 1.00917 121.736 2.06805 121.965C2.95542 122.162 3.6663 121.717 4.36974 121.269C10.2789 117.488 16.1865 113.705 22.0923 109.922C22.7425 109.493 23.5083 109.273 24.2871 109.291C35.8578 109.311 47.4284 109.291 58.9991 109.321C59.5936 109.342 60.186 109.24 60.7391 109.021C61.2922 108.801 61.794 108.47 62.213 108.048C67.0973 103.34 72.0412 98.6971 76.9205 93.9868C77.2642 93.6187 77.6833 93.3291 78.1491 93.1378C78.615 92.9464 79.1167 92.8579 79.6199 92.8783C85.6948 92.9354 91.7697 92.8782 97.8446 92.9205C99.1545 92.9205 100.129 92.4979 100.912 91.4291C102.085 89.8284 103.355 88.3022 104.556 86.7238C105.555 85.3816 105.418 83.8604 104.238 82.9755ZM44.8831 25.7884C44.9975 22.0326 48.2512 18.9529 52.0268 19.0275C53.9073 19.0602 55.698 19.8375 57.006 21.1889C58.3141 22.5403 59.0326 24.3553 59.004 26.2359C58.9859 27.1659 58.7846 28.0832 58.4114 28.9352C58.0383 29.7872 57.5007 30.5573 56.8295 31.2013C56.1583 31.8452 55.3666 32.3505 54.4998 32.688C53.6331 33.0255 52.7082 33.1888 51.7783 33.1683C47.7988 33.0614 44.7688 29.8301 44.8831 25.7884ZM38.5199 61.691C39.5315 55.9094 40.4736 50.1154 41.5027 44.3363C42.1788 40.5283 44.8657 38.3956 49.1659 38.0874C51.5595 37.9159 53.5829 38.5571 55.3352 40.3244C58.2509 43.255 61.3182 46.0414 64.2835 48.9297C64.6673 49.3295 65.1317 49.6431 65.646 49.8497C66.1603 50.0562 66.7126 50.151 67.2663 50.1278C69.911 50.088 72.5557 50.093 75.2004 50.1278C76.5725 50.1452 77.4102 51.1071 77.1069 52.258C76.8037 53.4088 75.9312 53.645 74.8972 53.6425C72.163 53.6425 69.4412 53.6425 66.7145 53.6425C64.0697 53.6425 61.4225 53.6201 58.7778 53.6574C58.4519 53.6725 58.1263 53.6213 57.8208 53.5067C57.5153 53.3922 57.2363 53.2169 57.0006 52.9913C55.7454 51.8528 54.4454 50.7542 53.1603 49.658C51.7261 48.4152 50.2272 48.3928 49.2355 49.5636C48.2437 50.7343 48.4674 52.1312 49.9439 53.4312C50.8437 54.2241 51.7211 55.0469 52.6781 55.7702C53.3616 56.2872 53.3244 56.6054 52.7005 57.1472C49.7898 59.69 46.3596 61.1242 42.6311 61.8898C41.5027 62.1235 40.3468 62.2328 39.2059 62.4093C38.6168 62.4888 38.3981 62.3745 38.5199 61.691ZM33.7748 35.7335C35.7459 35.7658 37.2845 37.4013 37.2821 39.4619C37.2796 41.5225 35.7037 43.1904 33.7549 43.1904C31.7664 43.1904 30.1607 41.4728 30.1905 39.3675C30.2204 37.2621 31.7789 35.6987 33.7748 35.7335ZM30.8716 67.6291C29.6288 67.3955 28.2294 67.1842 26.8647 66.8661C25.7213 66.6001 25.602 65.6928 25.7661 64.7135C26.2931 61.5766 26.8275 58.4414 27.3693 55.3079C27.7546 53.0708 28.1846 50.8337 28.5202 48.5966C28.6544 47.6919 28.9154 47.3265 29.9146 47.5601C31.5576 47.9429 33.2305 48.2089 34.9008 48.4724C35.4924 48.5668 35.7633 48.6911 35.6465 49.3995C34.6522 54.9723 33.7127 60.5501 32.7607 66.1278C32.5892 67.1146 32.0647 67.6838 30.8716 67.6291ZM31.7515 104.069C29.7232 103.323 28.8533 101.021 29.8575 98.9158C31.6894 95.083 33.5088 91.2402 35.4402 87.4571C36.2107 85.9657 36.3176 84.3848 36.4344 82.7841C36.5538 81.0441 36.6507 79.3291 36.765 77.4748C38.9325 78.469 41.177 78.7549 43.4116 79.0705C43.9659 79.1501 44.1573 79.3738 44.12 79.9629C43.9286 82.272 43.7944 84.5862 43.6229 86.8978C43.5791 87.2243 43.4764 87.5401 43.3197 87.8299C41.0445 92.5493 38.7618 97.2654 36.4717 101.978C35.48 103.974 33.6307 104.77 31.7515 104.069ZM59.1407 104.069C59.0316 104.161 58.905 104.231 58.7683 104.274C58.6317 104.316 58.4878 104.331 58.3453 104.317H41.0254C40.9707 103.753 41.2939 103.392 41.4803 103C43.1009 99.6168 44.5948 96.1593 46.4217 92.8907C48.1343 89.8284 48.8229 86.6144 48.8452 83.1818C48.8452 82.5206 48.9322 81.8594 48.9521 81.1933C48.972 80.5271 49.1559 80.3084 49.837 80.6589C51.3284 81.4319 52.862 82.1502 54.3932 82.8711C54.9127 83.1196 55.2209 83.5347 55.5515 83.9523C57.883 86.9028 60.227 89.8408 62.5361 92.8111C63.7367 94.3547 65.0093 95.7939 67.0301 96.5396L59.1407 104.069ZM72.4041 91.3918C70.7114 92.7515 68.5613 92.3861 67.0003 90.42C64.2711 86.9931 61.5526 83.5563 58.8449 80.1095C58.3725 79.4831 57.7572 78.9785 57.0503 78.638C54.9301 77.6289 52.8247 76.56 50.702 75.5882C48.45 74.5641 45.9569 74.5939 43.5881 74.0794C42.5392 73.8532 41.4579 73.7786 40.4189 73.5276C37.9333 72.9261 36.6905 70.7188 37.4859 67.8901C37.6698 67.219 38.3086 67.4477 38.7486 67.4179C42.6317 67.1956 46.4413 66.2639 49.9886 64.6688C50.9953 64.2064 51.9771 63.6745 53.123 63.0929C52.9416 64.1045 52.7825 64.9521 52.6383 65.8022C52.3276 67.6341 52.7576 68.4892 54.4205 69.2821C56.8664 70.4702 59.3123 71.6559 61.7755 72.8092C62.4114 73.1019 62.9673 73.5436 63.3961 74.0968C66.4833 78.0315 69.5953 81.9489 72.6924 85.8762C74.2037 87.8175 74.0993 90.0446 72.4041 91.3968V91.3918ZM80.3581 87.9492C79.2122 88.0138 78.5585 87.8548 78.4367 86.4802C78.3174 85.1554 77.5394 84.0219 76.6968 82.9705C73.3395 78.73 69.9864 74.4846 66.6374 70.2341C66.157 69.6152 65.5334 69.1222 64.8204 68.7974C62.6952 67.8032 60.5948 66.7393 58.4721 65.755C57.8731 65.4766 57.7264 65.1684 57.8532 64.5122C58.2012 62.8145 58.4994 61.1044 58.7356 59.3868C58.8251 58.743 59.0761 58.5715 59.6826 58.579C61.7457 58.6088 63.8112 58.579 65.8743 58.579C67.8976 58.579 69.9209 58.5939 71.9418 58.579C72.5184 58.579 72.7894 58.7182 72.9658 59.3246C75.6354 68.5546 78.3265 77.7755 81.0392 86.9873C81.253 87.6783 81.1535 87.9094 80.3656 87.9542L80.3581 87.9492Z" fill="white"/>
<path d="M118.194 20.2703C117.87 19.0403 117.3 17.8882 116.521 16.8828C115.741 15.8774 114.767 15.0391 113.657 14.418C112.547 13.7969 111.323 13.4056 110.058 13.2674C108.794 13.1292 107.514 13.247 106.296 13.6138C105.57 13.8325 105.18 13.7157 104.643 13.1589C101.787 10.1762 98.3044 8.97311 94.2031 9.67903C88.8913 10.6062 84.882 15.4805 84.9466 20.9589C85.0137 26.5441 89.11 31.3041 94.5113 32.0945C97.1859 32.4847 99.8728 32.1666 102.552 32.2834C103.049 32.2834 103.547 32.2834 104.044 32.2834C106.432 32.2138 108.846 32.532 111.205 31.9975C116.39 30.8243 119.586 25.4131 118.194 20.2703ZM113.35 24.0435C113.075 24.9829 112.503 25.8081 111.721 26.3962C110.938 26.9843 109.986 27.3038 109.008 27.3072C106.823 27.3643 104.633 27.3196 102.443 27.3196C100.338 27.3196 98.2298 27.3941 96.127 27.3047C92.4135 27.1431 89.6867 24.1032 89.9253 20.5065C90.164 16.9097 93.1244 14.2526 96.6366 14.4738C98.9383 14.6205 100.706 15.7166 101.879 17.7051C103.296 20.1187 104.21 20.3722 106.512 18.9107C107.29 18.388 108.212 18.1227 109.148 18.1521C110.085 18.1815 110.989 18.5042 111.732 19.0747C112.485 19.6319 113.045 20.4099 113.335 21.3005C113.625 22.191 113.63 23.1499 113.35 24.0435Z" fill="white"/>
<path d="M14.9884 26.0047C17.3902 25.9955 19.691 25.0372 21.3891 23.3386C23.0873 21.64 24.045 19.3389 24.0535 16.9371C24.0522 14.5348 23.0982 12.231 21.4006 10.5312C19.7031 8.83131 17.4006 7.87412 14.9983 7.86951C13.8094 7.86853 12.6319 8.10203 11.5332 8.55666C10.4346 9.01128 9.43643 9.67809 8.59581 10.5189C7.7552 11.3598 7.08865 12.3582 6.63432 13.4569C6.18 14.5557 5.94683 15.7332 5.94814 16.9222C5.94811 19.3237 6.89921 21.6275 8.59339 23.3296C10.2876 25.0317 12.5869 25.9935 14.9884 26.0047ZM14.9884 12.8433C16.0731 12.8426 17.1138 13.2722 17.8821 14.0378C18.6505 14.8034 19.0839 15.8425 19.0872 16.9272C19.082 18.0118 18.6497 19.0507 17.8839 19.8189C17.1181 20.587 16.0805 21.0225 14.9958 21.0309C13.9113 21.027 12.8725 20.5939 12.1063 19.8264C11.3401 19.0588 10.9089 18.0191 10.907 16.9346C10.905 16.3974 11.0093 15.8651 11.2137 15.3683C11.4181 14.8715 11.7188 14.4201 12.0983 14.0398C12.4778 13.6596 12.9287 13.3582 13.4251 13.1528C13.9216 12.9475 14.4537 12.8423 14.9909 12.8433H14.9884Z" fill="white"/>
<path d="M14.444 6.32098C16.184 6.75845 17.4616 5.5032 17.479 3.32081C17.4964 0.996745 16.1865 -0.377812 14.4018 0.0894877C13.0943 0.434991 12.4953 1.44913 12.5077 3.29348C12.5152 5.06822 13.1043 5.9879 14.444 6.32098Z" fill="white"/>
<path d="M13.1291 28.5525C12.3611 29.3976 12.2368 31.8808 12.9079 32.8974C13.5393 33.8519 14.454 34.2471 15.5725 33.9986C16.8601 33.7127 17.4641 32.6936 17.474 30.7672C17.5561 29.6164 17.2851 28.4407 15.9255 27.8814C14.8666 27.4439 13.8972 27.7074 13.1291 28.5525Z" fill="white"/>
<path d="M3.56689 12.9278C4.2354 12.9332 4.87926 12.6756 5.3596 12.2106C5.83993 11.7456 6.11827 11.1105 6.13455 10.4421C6.15195 9.03276 4.22558 7.31767 2.55772 7.25553C1.89183 7.24556 1.24916 7.50004 0.770621 7.9632C0.292085 8.42636 0.0167351 9.06039 0.00496455 9.72625C-0.00746363 11.158 1.88908 12.8557 3.56689 12.9278Z" fill="white"/>
<path d="M26.4074 12.9278C28.0628 12.8805 29.9942 11.1704 29.9917 9.75359C29.9786 9.08854 29.7048 8.45525 29.2291 7.99027C28.7534 7.52529 28.1141 7.26587 27.4489 7.26796C25.7711 7.31767 23.8522 9.0079 23.8522 10.4396C23.8721 11.1048 24.1499 11.7362 24.6266 12.2004C25.1034 12.6647 25.7419 12.9255 26.4074 12.9278Z" fill="white"/>
<path d="M3.63151 21.1006C1.89156 21.1006 0.0323017 22.6964 0.00744533 24.1828C-0.000300048 24.5121 0.0585666 24.8397 0.180517 25.1457C0.302468 25.4517 0.485 25.73 0.717135 25.9637C0.94927 26.1975 1.22624 26.3819 1.53141 26.506C1.83659 26.6301 2.16369 26.6913 2.49308 26.6858C4.15349 26.6858 6.09974 25.0279 6.13206 23.5987C6.13641 23.2692 6.07469 22.9422 5.95053 22.637C5.82638 22.3318 5.6423 22.0545 5.4092 21.8217C5.17609 21.5888 4.89869 21.405 4.59336 21.2812C4.28802 21.1573 3.96097 21.0959 3.63151 21.1006Z" fill="white"/>
<path d="M23.8546 23.5116C23.8248 25.003 25.791 26.6982 27.5334 26.6858C28.1783 26.6865 28.7976 26.4335 29.2576 25.9815C29.7176 25.5294 29.9812 24.9146 29.9917 24.2698C30.0215 22.7386 28.1101 21.0857 26.3229 21.1006C25.6794 21.1048 25.0626 21.3584 24.6023 21.8081C24.1419 22.2577 23.8739 22.8684 23.8546 23.5116Z" fill="white"/>
<path d="M108.356 74.7679C107.712 74.7646 107.092 75.0157 106.632 75.4667C106.172 75.9177 105.908 76.5321 105.898 77.1765C105.894 77.8413 106.153 78.4807 106.619 78.9553C107.084 79.4298 107.719 79.7009 108.384 79.7094C109.05 79.6937 109.683 79.4147 110.143 78.9334C110.604 78.4521 110.855 77.8078 110.842 77.1417C110.825 76.498 110.554 75.8871 110.088 75.4424C109.623 74.9977 109 74.7552 108.356 74.7679Z" fill="white"/>
</g>
<defs>
<clipPath id="clip0_12_2">
<rect width="126.971" height="122" fill="white"/>
</clipPath>
</defs>
</svg>
