<svg width="164" height="122" viewBox="0 0 164 122" fill="none" xmlns="http://www.w3.org/2000/svg">
<g clip-path="url(#clip0_12_62)">
<path d="M160.644 72.1539C159.288 72.1859 158.555 73.0663 157.875 74.0429C154.321 79.1495 150.763 84.2522 147.201 89.3509C146.897 89.7831 146.761 90.4915 145.953 90.3674C141.846 89.7351 137.736 89.1148 133.546 88.4785C133.64 88.3398 133.742 88.2062 133.85 88.0782C139.969 82.5794 142.531 75.7718 141.298 67.6075C141.166 66.739 141.578 66.655 142.207 66.5069C145.312 65.7865 148.406 65.0221 151.503 64.2857C154.349 63.6094 155.037 62.5289 154.369 59.7194C153.605 56.5177 152.828 53.316 152.076 50.1143C150.839 44.8556 150.507 44.6114 145.272 45.9401C144.14 46.2283 143.719 46.0162 143.459 44.8636C142.315 39.7889 141.058 34.7343 139.857 29.6556C138.389 23.4243 134.002 19.6023 127.783 19.2781C118.642 18.8006 109.497 18.3697 100.349 17.9855C99.9369 17.9981 99.5288 17.9046 99.1637 17.7139C98.7985 17.5233 98.4885 17.242 98.2635 16.8969C95.262 12.7667 92.2257 8.66191 89.1548 4.58244C86.4974 1.03658 82.9235 -0.728351 78.5652 0.276176C64.0256 3.62193 49.526 7.14778 35.0223 10.6336C32.9693 11.1259 32.2209 12.5026 32.7251 14.6357C34.8756 23.6191 37.0314 32.6025 39.1925 41.5858C39.7809 44.0271 39.7768 44.0271 37.3876 44.6194C36.7673 44.7715 36.1549 44.9396 35.5346 45.0877C33.1334 45.66 33.1334 45.656 32.5371 43.1707C30.7441 35.6814 28.9432 28.1961 27.1342 20.7149C26.638 18.6658 25.2932 17.6533 23.6684 18.0295C22.0435 18.4057 21.2671 19.8584 21.6673 21.9395C21.9755 23.4483 22.2957 24.9611 22.7399 26.4339C22.8482 26.7825 22.8775 27.1509 22.8256 27.5123C22.7736 27.8737 22.6418 28.2189 22.4398 28.523C19.2381 34.278 15.8283 39.929 12.9788 45.8521C11.0698 49.8182 8.5765 52.1754 4.08614 52.6557C0.940491 52.9998 0.340172 54.4006 1.08056 57.4902C2.53199 63.5307 3.97405 69.5739 5.4068 75.6197C5.67495 76.7523 6.44337 78.165 6.03116 78.9575C5.5509 79.8939 3.862 79.6858 2.70939 80.018C2.45326 80.09 2.19711 80.1661 1.94898 80.2621C0.448197 80.8504 -0.304186 82.1031 0.0600054 83.6799C1.06053 88.0316 2.09976 92.3698 3.17766 96.6947C3.6459 98.5677 5.02264 99.3241 6.94365 98.8759C10.4575 98.0755 13.9793 97.243 17.4731 96.3465C18.4697 96.0904 18.8579 96.3185 19.15 97.295C19.9076 99.6792 21.0988 101.903 22.6639 103.854C24.857 106.684 27.6505 108.753 30.9402 110.422C28.0867 111.807 25.2532 112.927 22.6879 114.488C19.9865 116.137 17.5132 116.197 14.6837 114.888C12.3865 113.828 9.88117 113.151 7.47991 112.351C5.25475 111.619 3.4778 112.583 3.31371 114.604C3.18565 116.245 4.15017 117.133 5.58693 117.638C9.39693 118.962 13.2269 120.227 16.9969 121.64C17.6845 121.913 18.4242 122.03 19.1626 121.983C19.901 121.936 20.6198 121.726 21.2671 121.368C27.0301 118.534 32.8172 115.765 38.5842 112.939C39.4405 112.519 40.3839 112.306 41.3377 112.319C49.4299 112.339 57.5222 112.291 65.6144 112.339C66.3789 112.371 67.1411 112.234 67.8467 111.938C68.5523 111.642 69.1839 111.194 69.6965 110.626C72.5781 107.636 75.5636 104.751 78.4732 101.789C78.6945 101.506 79.0017 101.302 79.3489 101.208C79.696 101.114 80.0642 101.136 80.3982 101.269C85.2887 102.694 90.2153 103.991 95.1059 105.419C95.8336 105.652 96.6006 105.736 97.3615 105.668C98.1225 105.599 98.8619 105.378 99.5362 105.019C107.388 101.145 115.28 97.3551 123.149 93.4971C123.995 93.0567 124.96 92.9009 125.902 93.0528C132.682 94.0814 139.473 95.0539 146.245 96.1265C148.246 96.4466 149.554 95.9063 150.699 94.2255C154.909 88.0422 159.224 81.927 163.506 75.7838V74.1829C162.897 73.0383 162.125 72.1299 160.644 72.1539ZM145.837 51.5151C146.497 51.351 146.681 51.6912 146.801 52.2074C147.281 54.2685 147.725 56.3416 148.27 58.3866C148.466 59.127 148.178 59.3151 147.573 59.4512C145.096 60.0235 142.619 60.5798 140.158 61.2162C139.509 61.3882 139.209 61.2642 138.913 60.6919C137.712 58.3666 136.031 56.3976 133.874 54.4246C138.036 53.424 141.943 52.4875 145.845 51.523L145.837 51.5151ZM136.348 38.9364C136.44 39.5047 136.496 39.889 135.707 40.0571C133.23 40.5853 130.777 41.2177 128.135 41.854C128.235 40.5773 128.279 39.5728 128.399 38.5803C128.434 38.0189 128.639 37.4816 128.989 37.0408C129.338 36.6 129.814 36.2768 130.352 36.1149C130.753 35.9829 131.153 35.8828 131.553 35.7788C135.659 34.7743 135.659 34.7743 136.348 38.9364ZM24.9651 35.6147C25.8335 39.2166 26.5419 42.3542 27.3663 45.4679C27.6905 46.6685 27.3423 47.0967 26.1657 47.3409C23.3282 47.9372 20.5187 48.6536 17.3291 49.406L24.9651 35.6147ZM18.0334 89.511C18.0334 90.2073 17.7733 90.5635 17.085 90.7116C14.3955 91.3333 11.7115 91.9763 9.03273 92.6406C8.34037 92.8127 8.00019 92.6966 7.8321 91.9042C7.40788 89.8792 6.89161 87.8741 6.37934 85.8691C6.21525 85.2127 6.40334 84.9006 7.07169 84.7445C11.1939 83.784 15.308 82.7955 19.7063 81.7549C18.6887 84.2206 18.1221 86.849 18.0334 89.515V89.511ZM13.0588 77.5927C12.0903 77.8409 11.6861 77.6688 11.458 76.6042C10.1253 70.7571 8.74857 64.9181 7.2718 59.103C6.97164 57.9264 7.17975 57.5822 8.32435 57.3141C19.5889 54.6594 30.8482 51.9766 42.1021 49.2659C42.5023 49.1658 42.9265 49.0698 43.3387 48.9617C45.5439 48.3734 46.3043 47.1568 45.78 44.9596C43.5708 35.6628 41.3777 26.3579 39.0845 17.085C38.7403 15.7043 39.1565 15.3921 40.3452 15.1119C53.0558 12.1104 65.7612 9.0848 78.4611 6.0352C79.1815 5.86712 79.9219 5.78306 80.2621 5.72303C82.6273 5.72303 83.892 6.85562 84.9766 8.32439C88.1783 12.6467 91.3799 16.9369 94.5416 21.2912C94.9856 21.9787 95.5947 22.544 96.3134 22.9355C97.0321 23.327 97.8373 23.5322 98.6557 23.5324C108.225 23.9326 117.79 24.4649 127.359 24.9371C130.04 25.0652 132.161 26.0857 133.522 28.503C133.922 29.1914 133.878 29.4995 133.05 29.6596C132.009 29.8557 130.981 30.1438 129.952 30.392C125.594 31.4525 123.253 33.9939 122.748 38.3962C122.504 40.5613 122.392 42.7464 122.324 44.9236C122.244 47.4329 123.781 48.6455 126.21 48.0772C129.724 47.2528 133.242 46.4404 136.74 45.5479C137.632 45.3198 137.94 45.4999 138.136 46.3884C138.333 47.2768 138.317 47.589 137.356 47.8051C134.038 48.5415 130.745 49.3779 127.443 50.1783C126.87 50.3007 126.275 50.276 125.714 50.1063C116.613 47.7771 108.905 50.0703 102.71 57.154C99.6385 60.6671 97.857 65.1225 97.6592 69.7846C97.5912 70.9852 97.315 71.5055 96.0584 71.7857C84.3802 74.5271 72.7141 77.3486 61.052 80.1661C60.1836 80.3742 59.6673 80.2621 59.155 79.3657C51.9873 67.0152 35.7948 64.4819 25.1932 74.0269C24.5666 74.5966 23.7978 74.9865 22.968 75.1554C19.6569 75.9372 16.3539 76.7509 13.0588 77.5967V77.5927ZM39.8729 106.728C35.5494 106.646 31.429 104.878 28.3901 101.802C25.3511 98.7252 23.6339 94.5835 23.6044 90.2594C23.6284 81.3387 31.0443 73.8228 39.7649 73.8788C49.1338 73.9428 56.4896 81.2186 56.4576 90.3914C56.4416 99.3201 48.8336 106.816 39.8849 106.732L39.8729 106.728ZM97.239 99.8484C96.6027 100.157 96.0864 99.7884 95.5581 99.6443C90.4394 98.2515 85.3208 96.8428 80.2301 95.3621C78.4332 94.8298 77.1004 95.158 75.7957 96.5187C72.7341 99.7203 69.5685 102.786 66.4468 105.912C65.9946 106.364 65.5944 106.76 64.846 106.748C61.6083 106.7 58.3746 106.748 55.0849 106.748C55.0849 106.172 55.5131 105.972 55.7772 105.691C60.7478 100.393 62.7769 94.1454 61.7283 86.9576C61.5763 85.9051 61.9685 85.725 62.8049 85.5289C74.323 82.7941 85.8357 80.0434 97.3431 77.2766C97.9194 77.1365 98.2515 77.0284 98.5717 77.7168C102.834 86.8456 103.826 87.8581 112.775 92.3325C107.544 94.8538 102.374 97.3431 97.251 99.8524L97.239 99.8484ZM119.559 87.63C110.314 87.594 103.15 80.1621 103.178 70.6771C103.218 62.2407 111.022 54.6687 119.547 54.7888C128.511 54.9208 135.999 62.1726 136.015 70.7451C136.043 80.2541 128.82 87.67 119.583 87.634L119.559 87.63Z" fill="#999999"/>
<path d="M51.2989 41.982C52.7557 41.6819 54.1964 41.3136 55.6412 40.9695C68.1411 37.9812 80.637 34.9917 93.1289 32.0008C95.7542 31.3685 96.6667 29.3234 95.1299 27.2463C90.9597 21.5353 86.7255 15.8723 82.5073 10.1934C82.2298 9.7776 81.8517 9.43879 81.408 9.20857C80.9643 8.97834 80.4696 8.86418 79.9699 8.87666C79.5857 8.91596 79.2037 8.97471 78.8254 9.05273C67.7235 11.7075 56.623 14.3755 45.5238 17.0569C43.5748 17.5252 42.6824 18.7938 43.1226 20.7229C44.5954 27.1262 46.1308 33.5296 47.729 39.9329C48.1973 41.6859 49.494 42.3502 51.2989 41.982ZM62.3287 18.7698C67.4994 17.6172 72.6381 16.3205 77.7928 15.0999C78.305 14.9798 78.8413 14.6277 79.3496 15.32C82.2551 19.2941 85.2047 23.2362 88.2823 27.3743C80.5983 29.2033 73.1704 30.9442 65.7585 32.7652C64.762 33.0093 64.3898 32.9213 64.1576 31.8487C63.3092 28.0227 62.3607 24.2167 61.4242 20.4067C61.2001 19.5382 61.152 19.042 62.3287 18.7778V18.7698ZM49.8821 21.7714C51.535 21.3712 53.1799 20.971 54.8208 20.5708C55.5051 20.3947 55.7412 20.6588 55.8933 21.3192C56.8218 25.3453 57.7823 29.3634 58.7748 33.3735C58.9629 34.1459 58.8749 34.5741 57.9744 34.6342C57.6095 34.7 57.2487 34.7869 56.8938 34.8943C55.4531 35.1384 53.7282 36.307 52.6956 35.5827C51.8032 34.9583 51.8352 32.9933 51.495 31.6086C50.7586 28.571 50.0503 25.5254 49.3619 22.6279C49.1458 21.9555 49.4819 21.8715 49.8821 21.7794V21.7714Z" fill="#999999"/>
<path d="M79.8779 53.7442C81.4468 53.344 82.2431 52.0473 82.043 50.6546C81.8429 49.2618 80.6223 48.2533 78.8094 48.3013C78.6853 48.3293 78.2691 48.4054 77.8569 48.5014C66.9178 51.1108 55.9787 53.7228 45.0396 56.3375C35.3359 58.6587 25.6335 60.9893 15.9324 63.3292C13.8833 63.8214 12.9268 65.1341 13.315 66.827C13.7032 68.5199 15.124 69.2283 17.185 68.784C17.4452 68.728 17.7093 68.688 17.9855 68.628C35.6401 64.4017 53.292 60.1756 70.9412 55.9493C73.9028 55.233 76.9044 54.5446 79.8779 53.7442Z" fill="#999999"/>
<path d="M91.5881 56.4335C83.1196 58.4506 74.6538 60.477 66.1907 62.5127C63.2972 63.2091 60.3957 63.8574 57.5262 64.6258C56.8376 64.77 56.2321 65.1763 55.8378 65.7589C55.4434 66.3415 55.2911 67.0546 55.4131 67.7475C55.6252 69.1442 56.7258 70.0767 58.4427 70.0967C58.7188 70.0407 59.2431 69.9486 59.7554 69.8246C65.7985 68.3918 71.8404 66.9551 77.8809 65.5143C82.7875 64.3457 87.6914 63.1717 92.5926 61.9924C93.8693 61.6883 95.0739 61.2521 95.4741 59.8073C96.1104 57.5101 94.1734 55.8212 91.5881 56.4335Z" fill="#999999"/>
<path d="M86.5814 46.4163C84.9806 46.8165 84.1161 48.1252 84.3202 49.618C84.4275 50.2872 84.7737 50.8948 85.2947 51.3282C85.8157 51.7616 86.4762 51.9915 87.1537 51.9752C87.5057 51.9416 87.8557 51.8895 88.2022 51.8191C92.4325 50.8026 96.6667 49.8181 100.885 48.7496C102.886 48.2453 103.858 46.8005 103.422 45.1957C102.986 43.5909 101.489 42.8785 99.5722 43.2907C98.3276 43.5588 97.0989 43.887 95.8623 44.1832C92.7686 44.9115 89.663 45.6199 86.5814 46.4163Z" fill="#999999"/>
<path d="M125.846 64.1496C124.561 64.8179 124.061 66.1987 124.581 67.6834C124.757 68.1837 124.982 68.66 125.178 69.1602C126.022 71.4734 125.61 73.5625 123.941 75.3555C123.157 76.1905 122.149 76.7821 121.037 77.0593C119.926 77.3365 118.758 77.2878 117.674 76.9188C116.589 76.5498 115.634 75.8764 114.922 74.9788C114.21 74.0813 113.772 72.9977 113.66 71.8576C113.351 68.776 114.764 66.823 118.298 65.3102C119.995 64.5858 120.667 63.3091 120.155 61.7924C119.643 60.2756 118.21 59.5712 116.433 60.0915C111.018 61.6923 107.336 67.0071 108.009 72.2818C108.809 78.4251 113.476 82.7674 119.415 82.8554C122.312 82.8946 125.121 81.8529 127.292 79.9334C129.463 78.014 130.841 75.3545 131.157 72.474C131.429 69.9697 130.866 67.4455 129.556 65.2942C129.205 64.6611 128.623 64.1884 127.931 63.975C127.24 63.7616 126.493 63.8242 125.846 64.1496Z" fill="#999999"/>
<path d="M40.2051 78.6733C33.9298 78.5052 28.599 83.6479 28.4229 90.0432C28.2468 96.4386 33.3735 101.757 39.8609 101.942C46.1522 102.118 51.439 96.9429 51.6751 90.3835C51.8912 84.2282 46.6205 78.8454 40.2051 78.6733ZM40.077 96.2826C38.8871 96.2952 37.7202 95.954 36.7246 95.3021C35.729 94.6502 34.9496 93.7172 34.4854 92.6214C34.0212 91.5257 33.8931 90.3167 34.1175 89.148C34.3418 87.9793 34.9085 86.9037 35.7455 86.0577C36.5824 85.2117 37.6519 84.6336 38.8181 84.3967C39.9843 84.1599 41.1946 84.2749 42.2953 84.7273C43.3959 85.1797 44.3373 85.9491 44.9998 86.9377C45.6623 87.9262 46.0161 89.0894 46.0162 90.2794C46.0225 91.0639 45.8736 91.842 45.5781 92.5687C45.2827 93.2955 44.8464 93.9567 44.2944 94.5143C43.7424 95.0718 43.0856 95.5147 42.3619 95.8175C41.6381 96.1203 40.8616 96.277 40.077 96.2785V96.2826Z" fill="#999999"/>
</g>
<defs>
<clipPath id="clip0_12_62">
<rect width="163.53" height="122" fill="white"/>
</clipPath>
</defs>
</svg>
