<svg width="122" height="122" viewBox="0 0 122 122" fill="none" xmlns="http://www.w3.org/2000/svg">
<g clip-path="url(#clip0_12_70)">
<path d="M121.975 81.3503C121.984 81.081 121.939 80.8126 121.84 80.5619C121.741 80.3111 121.592 80.0834 121.401 79.8931C121.211 79.7027 120.983 79.5537 120.732 79.4554C120.481 79.3572 120.212 79.3117 119.943 79.322C118.794 79.322 117.994 80.1371 117.937 81.3758C117.911 81.9267 117.937 82.4744 117.937 83.3086C117.552 82.7991 117.383 82.5794 117.217 82.3534C100.458 59.8155 83.7002 37.2776 66.9449 14.7398C65.6457 12.9916 63.8785 11.3868 63.229 9.41891C62.5794 7.45106 63.0124 5.09795 63.0634 2.91676C63.092 1.68129 62.7959 0.687801 61.7164 -0.00317383H60.2867C59.2551 0.652774 58.9239 1.58895 58.943 2.79895C58.978 5.05656 59.4047 7.4829 58.7297 9.53035C58.0546 11.5778 56.2396 13.1508 54.9086 14.9435C54.0648 16.0866 53.2083 17.2234 52.2721 18.478C51.8231 17.1311 51.546 15.867 50.9474 14.727C48.0816 9.27881 43.5919 6.24107 37.4145 6.16146C31.183 6.08186 26.5882 9.02726 23.6364 14.4882C23.1715 15.3511 22.9996 15.3734 22.2863 14.7716C20.5756 13.3299 18.4652 12.4453 16.2378 12.2365C14.0103 12.0276 11.7722 12.5044 9.82332 13.603C7.88189 14.6716 6.30461 16.2967 5.29452 18.2693C4.28442 20.2418 3.88772 22.4714 4.1554 24.6713C4.20953 25.0916 4.26683 25.3973 3.82104 25.6648C2.07513 26.7349 0.804849 28.4324 0.270672 30.4093C0.222909 30.5621 0.187849 30.7086 -0.00320435 30.7277V34.3036C0.356612 34.3927 0.296177 34.743 0.382151 34.9754C1.7036 38.6373 4.56936 40.6688 8.54963 40.6752C17.0854 40.6879 25.6202 40.6879 34.1539 40.6752H35.7651C25.1776 54.9118 14.7238 68.9733 4.14265 83.2067C3.94523 81.6687 4.46111 79.9588 2.58879 79.3856C1.42337 79.0226 0.678218 79.7614 -0.00320435 80.5415V90.3107C1.77359 92.0493 2.7225 91.9601 4.235 89.9222C6.35781 87.0607 8.48701 84.1949 10.6226 81.3249C11.0779 80.7103 11.5364 80.0989 12.1796 79.2424C12.1796 81.1529 12.2688 82.745 12.1606 84.318C11.8581 88.8046 15.0263 91.6417 19.2995 91.5494C28.3873 91.3838 37.4814 91.4984 46.5755 91.5048C46.948 91.5048 47.3461 91.3901 47.7218 91.6067C43.6683 98.2075 44.5695 104.223 49.9508 109.814C48.0944 109.814 46.3972 109.792 44.7 109.814C43.8896 109.799 43.0844 109.947 42.3317 110.248C41.579 110.549 40.894 110.997 40.317 111.566C39.7399 112.136 39.2825 112.814 38.9714 113.563C38.6603 114.311 38.502 115.115 38.5056 115.925C38.5092 116.736 38.6747 117.537 38.9924 118.283C39.3101 119.029 39.7736 119.704 40.3557 120.268C40.9378 120.832 41.6267 121.274 42.3821 121.568C43.1374 121.862 43.9438 122.003 44.7541 121.981C55.5805 122.006 66.4323 121.981 77.2714 121.981C78.3077 121.983 79.3268 121.716 80.2294 121.207C81.4001 120.555 82.3228 119.535 82.8542 118.306C83.3857 117.076 83.4962 115.705 83.1685 114.406C82.8543 113.104 82.1143 111.945 81.0662 111.112C80.018 110.279 78.7216 109.82 77.3828 109.808C75.8225 109.776 74.2622 109.808 72.4504 109.808C73.8133 108.448 74.8514 107.219 75.6092 105.764C77.8382 101.481 77.5197 97.0262 76.4434 92.5492C76.211 91.594 76.3638 91.4666 77.2872 91.4698C85.8623 91.5048 94.4406 91.492 103.016 91.4888C107.321 91.4888 109.804 89.0052 109.811 84.7001C109.811 82.9806 109.811 81.2612 109.811 79.2424C110.266 79.8442 110.527 80.1817 110.766 80.5161C113.231 83.8234 115.692 87.1329 118.15 90.4445C118.752 91.2532 119.51 91.7181 120.513 91.3997C120.942 91.29 121.321 91.0363 121.586 90.6811C121.851 90.3259 121.986 89.8905 121.968 89.4478C121.997 86.7508 122.013 84.0505 121.975 81.3503ZM23.0633 36.6153C18.1808 36.6153 13.2984 36.6153 8.41592 36.6153C6.69963 36.6153 5.33042 35.9434 4.51844 34.3863C3.78289 32.9534 3.93252 31.5492 4.80818 30.2214C5.3445 29.4742 6.11223 28.9246 6.99251 28.6579C8.58461 28.0816 8.99222 27.2473 8.53051 25.6329C7.22179 21.0477 9.83922 16.9687 14.5041 16.3223C17.4845 15.9115 20.6114 17.803 21.8023 20.742C21.9201 21.0349 22.0156 21.3374 22.1207 21.6335C22.2543 22.0754 22.5433 22.4539 22.9343 22.6991C23.3253 22.9444 23.7919 23.0398 24.2478 22.9678C24.7122 22.9518 25.1531 22.7595 25.4808 22.43C25.8085 22.1005 25.9984 21.6586 26.0119 21.1941C26.1902 19.4046 26.5245 17.6915 27.3906 16.0675C28.6678 13.7095 30.7481 11.8875 33.2539 10.9322C35.7597 9.97699 38.525 9.95185 41.0477 10.8614C46.2316 12.7719 49.2916 18.2105 48.1772 23.5122C48.0842 23.9745 47.8883 24.4098 47.604 24.7859C44.8305 28.5051 42.0475 32.2179 39.325 35.9625C38.9111 36.5325 38.4589 36.6408 37.8285 36.6408C32.9025 36.6057 27.9829 36.6153 23.0633 36.6153ZM28.7153 81.3185C28.572 78.5896 28.1644 75.9053 28.7662 73.256C29.0568 71.9717 29.7035 70.7953 30.6322 69.8617C33.6126 66.8399 36.6217 63.8435 39.6212 60.8408C39.6586 60.775 39.7095 60.7179 39.7706 60.6733C39.8317 60.6286 39.9016 60.5974 39.9756 60.5818C40.0497 60.5661 40.1261 60.5664 40.2001 60.5825C40.274 60.5986 40.3437 60.6302 40.4045 60.6752L28.7153 81.3185ZM76.8988 113.871C78.0769 113.871 78.9112 114.285 79.2264 115.463C79.5831 116.784 78.5451 117.927 76.9561 117.934C72.5874 117.934 68.2218 117.934 63.853 117.934H60.8759C55.5932 117.934 50.3138 117.934 45.0312 117.934C43.2831 117.934 42.2546 116.558 42.8755 115.125C43.2958 114.17 44.0887 113.871 45.1044 113.874C49.7916 113.893 54.4755 113.874 59.1627 113.874C65.0662 113.877 70.9825 113.89 76.8988 113.871ZM63.2926 104.162C64.874 104.589 66.5537 104.462 68.053 103.802C68.3714 106.617 66.7794 108.757 64.1269 109.492C60.6752 110.448 58.0769 109.174 55.9467 106.627C54.4437 104.828 54.7271 102.675 56.5485 101.185C56.7013 101.061 56.8669 100.936 57.0197 100.825C59.2137 99.3443 61.4936 97.9592 62.3756 95.0329C63.1016 96.7492 62.9806 98.319 61.7133 99.9907C60.1657 102.016 61.2834 103.611 63.2926 104.162ZM72.3295 103.134C71.7913 101.809 71.4569 100.421 70.5972 99.2583C69.4063 97.6662 68.4001 97.5102 66.7761 98.7552C67.4289 94.2655 65.633 90.9316 61.9998 88.4416C61.2865 87.9544 60.5605 87.7729 59.7709 88.19C58.9812 88.6071 58.4972 89.365 58.6469 90.2502C59.1819 93.6286 57.6916 95.7748 54.8258 97.4179C52.2785 98.8826 50.957 101.29 50.8774 104.611C49.1006 101.764 48.8427 99.0641 49.8776 96.2238C50.3252 95.0338 51.0148 93.9496 51.9027 93.0396C54.6698 90.1419 54.345 86.8813 50.9857 84.4709C51.8008 84.1524 52.5555 84.3244 53.291 84.439C55.1092 84.7192 56.246 83.6238 55.8925 81.8279C55.5234 80.2363 55.5607 78.5774 56.0008 77.0039C56.4169 75.7278 57.2796 74.6449 58.4302 73.954C59.5809 73.2631 60.9423 73.0108 62.2641 73.2433C62.6494 73.3166 63.0188 73.3197 62.8724 73.9502C62.0254 77.5547 63.2385 80.602 65.6267 83.2258C67.4958 85.2828 69.4732 87.257 70.8711 89.6707C73.3643 93.9216 73.8197 98.4305 72.3295 103.134ZM86.3622 87.4385C82.6303 87.4385 78.8985 87.4385 75.1666 87.4385C74.9157 87.4647 74.6625 87.4187 74.4369 87.3058C74.2113 87.193 74.0225 87.0181 73.8929 86.8017C72.3811 84.5637 70.6569 82.4768 68.744 80.5702C67.8592 79.6553 67.2224 78.5297 66.894 77.3C66.5214 75.9372 66.6329 74.7526 67.6996 73.6923C68.7663 72.6319 68.5275 71.0748 67.2507 70.5081C64.2893 69.1707 61.2229 68.518 58.0164 69.7057C56.1024 70.4065 54.4523 71.6826 53.2927 73.3588C52.133 75.035 51.5206 77.0291 51.5397 79.0672C51.5397 79.9174 51.4219 80.239 50.4985 80.2709C48.7822 80.3282 47.2856 81.0606 45.9737 82.1527C44.095 83.7194 44.3338 85.9006 46.4927 87.0819C46.5946 87.1392 46.8335 87.101 46.7761 87.4003H29.9412L60.9968 32.5904C71.3933 50.9411 81.6942 69.107 92.0716 87.4353L86.3622 87.4385ZM93.2816 81.3185C89.365 74.4087 85.4452 67.4937 81.5222 60.5733C82.0731 60.3727 82.2928 60.7612 82.5603 61.0287C85.3921 63.8563 88.2208 66.687 91.0463 69.521C92.5301 71.008 93.428 72.788 93.4854 74.9023C93.5502 77.0432 93.4822 79.186 93.2816 81.3185ZM105.741 84.7925C105.741 86.7412 105.031 87.4322 103.07 87.4385C101.599 87.4385 100.124 87.3685 98.6629 87.464C97.7076 87.5277 97.5643 87.1456 97.5898 86.3241C97.6503 84.4135 97.6089 82.503 97.6089 80.6084C97.6089 79.0991 97.5898 77.5897 97.6089 76.0804C97.6694 72.2243 96.3161 68.9924 93.5618 66.2667C87.015 59.7868 80.5256 53.2465 74.0044 46.7379C73.4978 46.2372 73.0637 45.668 72.7147 45.0471C69.7152 39.7401 66.705 34.433 63.6843 29.126C63.2108 28.3481 62.9792 27.4471 63.0188 26.5372C63.0761 25.3495 63.0411 24.1555 63.0188 22.9646C63.0188 21.2737 62.2387 20.3026 60.9523 20.3248C59.6658 20.3471 58.7933 21.3056 58.9748 22.8977C59.3824 26.5118 58.2456 29.5846 56.351 32.6C53.8514 36.5898 51.6511 40.7707 49.3457 44.8783C48.9429 45.6051 48.4403 46.2718 47.8524 46.8589C41.3852 53.307 34.9563 59.7964 28.4605 66.2157C25.6712 68.9701 24.321 72.2212 24.3624 76.125C24.4038 79.5003 24.3242 82.8787 24.3975 86.2508C24.4229 87.2857 24.1014 87.5086 23.1429 87.4545C21.64 87.3717 20.1274 87.4544 18.6181 87.429C17.0483 87.4099 16.2554 86.652 16.2427 85.0918C16.2172 81.5191 16.2427 77.9432 16.2204 74.3705C16.2204 73.7337 16.5389 73.3388 16.8573 72.9026L46.0406 33.6476C50.749 27.311 55.4605 20.9755 60.1753 14.641C60.9713 13.5711 60.9713 13.5711 61.7961 14.6824C76.1887 34.0382 90.5866 53.3897 104.99 72.737C105.499 73.3856 105.763 74.1929 105.735 75.0169C105.719 78.2807 105.751 81.535 105.741 84.7925Z" fill="#999999"/>
<path d="M91.0144 5.48645C92.5387 6.16563 93.9481 7.07765 95.1921 8.18984C103.891 15.9561 101.853 29.8871 91.2564 35.0264C90.282 35.5009 89.4287 36.0326 89.4892 37.2872C89.5465 38.4876 90.403 38.9462 91.3742 39.3155C94.6103 40.5668 98.1157 40.9574 101.548 40.4491C110.868 39.115 118.335 31.1257 118.873 21.9584C119.462 11.874 113.301 3.17151 103.818 0.659169C102.888 0.413985 101.892 0.4522 101.016 -0.0126953H96.0136C94.4215 0.560463 92.7371 0.710129 91.1832 1.38837C90.2279 1.79913 89.5114 2.34365 89.486 3.43583C89.4605 4.52802 90.126 5.09798 91.0144 5.48645ZM111.467 10.371C113.495 13.0122 114.668 16.2101 114.828 19.5364C114.989 22.8626 114.129 26.1586 112.365 28.9828C109.024 34.2622 102.293 37.5037 96.867 36.3574C101.904 32.1638 104.662 26.878 104.668 20.344C104.675 13.81 101.93 8.50188 96.9052 4.31464C100.341 3.45172 107.286 4.91648 111.473 10.3838L111.467 10.371Z" fill="#999999"/>
<path d="M27.6899 100.086C26.6837 99.2933 25.5247 99.5163 24.6108 100.701C23.923 101.592 23.2575 102.5 22.3819 103.675C22.3819 101.57 22.3819 99.806 22.3819 98.042C22.3819 96.4976 21.5381 95.5296 20.2835 95.5646C19.0289 95.5997 18.3283 96.5008 18.322 98.0356C18.322 99.7996 18.322 101.564 18.322 103.697C17.4463 102.538 16.8 101.662 16.1345 100.803C15.1474 99.529 14.0137 99.2679 12.9884 100.08C11.9631 100.892 11.9472 101.99 12.8738 103.226C14.7164 105.705 16.5696 108.178 18.4335 110.645C19.6403 112.237 21.0063 112.237 22.2258 110.645C24.1364 108.161 25.9991 105.649 27.8619 103.137C28.6993 102.016 28.6038 100.812 27.6899 100.086Z" fill="#999999"/>
<path d="M108.935 100.029C107.942 99.3092 106.856 99.5417 105.955 100.691C105.254 101.583 104.582 102.497 103.898 103.401L103.672 103.28C103.672 101.42 103.694 99.5608 103.672 97.7044C103.653 96.453 102.863 95.6156 101.745 95.5646C100.628 95.5137 99.6946 96.3925 99.6245 97.6598C99.5927 98.2521 99.6245 98.8475 99.6245 99.443V103.675C98.7425 102.49 98.0865 101.595 97.4115 100.717C96.5008 99.5321 95.3417 99.2933 94.3355 100.08C93.3993 100.796 93.2975 101.99 94.1349 103.133C96.0009 105.647 97.8795 108.15 99.771 110.642C100.994 112.234 102.353 112.263 103.557 110.68C105.455 108.194 107.332 105.691 109.19 103.172C110.062 101.968 109.954 100.764 108.935 100.029Z" fill="#999999"/>
</g>
<defs>
<clipPath id="clip0_12_70">
<rect width="121.997" height="122" fill="white"/>
</clipPath>
</defs>
</svg>
